<svg width="284" height="284" fill="none" xmlns="http://www.w3.org/2000/svg"><path d="M48.406 217.207c17.278 21.465 41.78 36.874 69.821 42.51l-69.821-69.811v27.301zm168.801 18.387c21.255-17.108 36.574-41.301 42.34-68.991l-69.601 68.991h27.261zM66.793 48.406c-21.245 17.098-36.554 41.27-42.33 68.951l69.58-68.951h-27.25zm62.216 212.96c4.267.46 8.594.699 12.991.699 24.553 0 47.377-7.374 66.393-20.025h-98.7l19.316 19.326zm26.122-238.712c-4.317-.47-8.694-.72-13.131-.72-24.553 0-47.376 7.375-66.393 20.027h98.8l-19.276-19.307zM262.065 142c0-24.553-7.374-47.377-20.025-66.393v99.24l19.226-19.067c.53-4.517.799-9.113.799-13.78zm-240.13 0c0 24.553 7.374 47.377 20.026 66.393v-99.27L22.734 128.17c-.52 4.537-.8 9.153-.8 13.83zM165.913 24.323l69.671 69.78v-27.31c-17.238-21.425-41.691-36.814-69.671-42.47z" fill="#800505"/><path d="M272.838 86.719c-7.155-16.908-17.388-32.097-30.429-45.128-13.041-13.041-28.22-23.274-45.128-30.429C179.763 3.757 161.167 0 142 0c-19.166 0-37.763 3.757-55.281 11.162C69.81 18.317 54.622 28.55 41.59 41.591 28.55 54.63 18.317 69.81 11.162 86.719 3.757 104.237 0 122.834 0 142c0 19.167 3.757 37.763 11.162 55.281 7.155 16.908 17.388 32.097 30.429 45.128 13.04 13.041 28.22 23.274 45.128 30.429C104.237 280.243 122.834 284 142 284c19.167 0 37.763-3.757 55.281-11.162 16.908-7.155 32.097-17.388 45.128-30.429 13.041-13.041 23.274-28.22 30.429-45.128C280.243 179.763 284 161.167 284 142c0-19.166-3.757-37.763-11.162-55.281zM142 271.089C70.7 271.089 12.91 213.29 12.91 142c0-71.3 57.8-129.09 129.09-129.09S271.089 70.7 271.089 142c0 71.3-57.789 129.089-129.089 129.089z" fill="#800505"/></svg>