<svg width="284" height="284" fill="none" xmlns="http://www.w3.org/2000/svg"><path d="M216.228 47.627v116.567l43.969-43.429c-5.276-29.53-21.335-55.321-43.969-73.138zm-6.456-4.747C190.486 29.67 167.142 21.925 142 21.925c-4.537 0-9.014.26-13.411.749l81.193 82.052V42.88h-.01zM42.88 74.228C29.669 93.514 21.924 116.858 21.924 142c0 5.057.32 10.043.93 14.95l81.992-82.722H42.88zm198.24 135.544c13.211-19.286 20.955-42.63 20.955-67.772 0-4.487-.249-8.924-.739-13.281l-82.062 81.053h61.846zM74.228 241.12c19.286 13.211 42.63 20.955 67.772 20.955 4.726 0 9.393-.279 13.98-.819l-81.752-82.032v61.896zm46.407-217.287c-29.479 5.297-55.22 21.345-73.018 43.94h116.498l-43.48-43.94zm43.27 236.234c29.249-5.396 54.781-21.375 72.469-43.839H120.215l43.69 43.839zm-96.133-23.693V120.795l-43.66 44.049c5.557 28.86 21.446 54.032 43.66 71.53z" fill="#800505"/><path d="M272.838 86.719c-7.155-16.908-17.388-32.097-30.429-45.138-13.041-13.041-28.22-23.274-45.128-30.429C179.763 3.757 161.167 0 142 0c-19.166 0-37.763 3.757-55.281 11.162C69.81 18.317 54.622 28.55 41.59 41.591 28.55 54.63 18.317 69.81 11.162 86.719 3.757 104.237 0 122.834 0 142c0 19.167 3.757 37.763 11.162 55.281 7.155 16.908 17.388 32.097 30.429 45.138 13.04 13.041 28.22 23.274 45.128 30.429 17.518 7.405 36.115 11.162 55.281 11.162 19.167 0 37.763-3.757 55.281-11.162 16.908-7.155 32.097-17.388 45.128-30.429 13.041-13.041 23.274-28.22 30.429-45.138C280.243 179.763 284 161.167 284 142c0-19.166-3.757-37.763-11.162-55.281zM142 271.089C70.7 271.089 12.91 213.29 12.91 142 12.91 70.71 70.7 12.91 142 12.91c71.3 0 129.089 57.79 129.089 129.09 0 71.3-57.789 129.089-129.089 129.089z" fill="#800505"/></svg>