<svg width="284" height="284" fill="none" xmlns="http://www.w3.org/2000/svg"><path d="M183.561 254.671c28.03-10.343 51.134-30.849 64.854-57.04H127.48l56.081 57.04zm14.08-219.086V156.68l57.149-55.951c-10.312-28.16-30.868-51.374-57.149-65.144zM32.437 92.815C25.692 107.824 21.935 124.472 21.935 142c0 12.831 2.018 25.182 5.745 36.774l84.891-85.95H32.437v-.01zm158.748-60.378C176.176 25.692 159.528 21.935 142 21.935c-12.451 0-24.463 1.898-35.755 5.416l84.94 85.14V32.437zm60.378 158.748c6.745-15.009 10.502-31.657 10.502-49.185 0-11.972-1.758-23.533-5.026-34.446l-85.42 83.631h79.944zM92.814 251.563c15.01 6.745 31.658 10.502 49.186 10.502 12.081 0 23.753-1.788 34.755-5.116l-83.93-85.36v79.974h-.01zm-6.454-3.148V128.539l-56.291 56.99c10.562 27.141 30.718 49.485 56.29 62.886zM99.47 29.69C71.88 40.141 49.145 60.466 35.585 86.36H156L99.47 29.69z" fill="#800505"/><path d="M272.838 86.719c-7.155-16.908-17.388-32.097-30.429-45.128-13.041-13.041-28.22-23.274-45.128-30.429C179.763 3.757 161.167 0 142 0c-19.166 0-37.763 3.757-55.281 11.162C69.81 18.317 54.622 28.55 41.59 41.591 28.55 54.63 18.317 69.81 11.162 86.719 3.757 104.237 0 122.834 0 142c0 19.167 3.757 37.763 11.162 55.281 7.155 16.908 17.388 32.097 30.429 45.128 13.04 13.041 28.22 23.274 45.128 30.429C104.237 280.243 122.834 284 142 284c19.167 0 37.763-3.757 55.281-11.162 16.908-7.155 32.097-17.388 45.128-30.429 13.041-13.041 23.274-28.22 30.429-45.128C280.243 179.763 284 161.167 284 142c0-19.166-3.757-37.763-11.162-55.281zM142 271.089C70.7 271.089 12.91 213.29 12.91 142 12.91 70.71 70.7 12.91 142 12.91c71.3 0 129.089 57.79 129.089 129.09 0 71.3-57.789 129.089-129.089 129.089z" fill="#800505"/></svg>