<svg width="284" height="284" fill="none" xmlns="http://www.w3.org/2000/svg"><path d="M175.047 26.541v119.976l68.501-68.612c-15.579-24.613-39.852-43.18-68.501-51.364zm84.06 142.05A120.124 120.124 0 00262.065 142c0-21.185-5.496-41.081-15.119-58.359l-84.81 84.95h96.971zm-54.111 75.637c25.162-15.539 44.158-40.102 52.473-69.181H137.033l67.963 69.181zM24.892 115.409A120.148 120.148 0 0021.935 142c0 21.315 5.556 41.321 15.299 58.669l84.67-85.26H24.893zm53.343-75.157C53.452 55.81 34.755 80.174 26.53 108.953h120.116L78.235 40.252zm37.174 218.856A120.783 120.783 0 00142 262.066c20.725 0 40.222-5.247 57.23-14.49l-83.821-85.33v96.862zm-6.456-1.649V137.603l-68.311 68.792c15.589 24.462 39.772 42.909 68.311 51.064zm59.638-232.567A120.148 120.148 0 00142 21.935c-21.045 0-40.821 5.426-58.019 14.93l84.61 84.969V24.892z" fill="#800505"/><path d="M272.838 86.719c-7.155-16.908-17.388-32.097-30.429-45.128-13.041-13.041-28.22-23.274-45.128-30.429C179.763 3.757 161.167 0 142 0c-19.166 0-37.763 3.757-55.281 11.162C69.81 18.317 54.622 28.55 41.59 41.591 28.55 54.63 18.317 69.81 11.162 86.719 3.757 104.237 0 122.834 0 142c0 19.167 3.757 37.763 11.162 55.281 7.155 16.908 17.388 32.097 30.429 45.128 13.04 13.041 28.22 23.274 45.128 30.429C104.237 280.243 122.834 284 142 284c19.167 0 37.763-3.757 55.281-11.162 16.908-7.155 32.097-17.388 45.128-30.429 13.041-13.041 23.274-28.22 30.429-45.128C280.243 179.763 284 161.167 284 142c0-19.166-3.757-37.763-11.162-55.281zM142 271.089C70.7 271.089 12.91 213.29 12.91 142 12.91 70.71 70.7 12.91 142 12.91c71.3 0 129.089 57.79 129.089 129.09 0 71.3-57.789 129.089-129.089 129.089z" fill="#800505"/></svg>