<svg width="101" height="130" fill="none" xmlns="http://www.w3.org/2000/svg"><path d="M25.407 113.27l.842.442c.564.288 1.113.607 1.694.858l1.725.796.43.198 2.202.892c.293.118.596.213.892.323.597.209 1.19.427 1.792.623l.188.058.015.025c.527.826.963 1.705 1.349 2.606 3.233 7.524 10.974 7.895 12.24 7.702 2.39-.366 5.501 2.207 5.501 2.207-4.978-7.572-6.96-5.97-12.046-8.42a31.712 31.712 0 01-6.071-3.821l.639.193c.3.095.607.178.912.253l.92.234c2.452.61 4.94 1.077 7.452 1.328 2.344.238 4.698.367 7.051.304.396.09 1.755.66 2.963 4.042 1.441 4.039 4.357 4.411 4.357 4.411s-1.798-.269-2.407-4.128c-.45-2.849-2.286-3.808-3.216-4.117 1.913.384 4.136 1.429 5.282 2.014a2.024 2.024 0 00-.561 3.592c.277.193.6.314.934.349a2.017 2.017 0 003.785 1.145 2.02 2.02 0 002.331-3.259 2.023 2.023 0 00-.333-3.027 2.009 2.009 0 00-1.888-.224 2.017 2.017 0 00-3.818 1.28c-1.318-.866-3.313-1.654-4.887-2.201a58.39 58.39 0 005.47-.635 58.644 58.644 0 005.33-1.195l.154.125c.642.527 1.223 1.12 1.772 1.742 4.582 5.205 10.909 3.462 11.876 2.97 1.83-.926 5.008.327 5.008.327-5.998-4.783-7.174-2.97-11.911-3.6a26.416 26.416 0 01-6.442-1.692 60.081 60.081 0 001.532-.45c2.4-.735 4.73-1.684 6.998-2.741.562-.279 1.138-.525 1.687-.826l1.66-.882c.463-.271.93-.542 1.39-.815 5.806-.402 10.972-2.795 13.097-4.276a1.762 1.762 0 002.76.058 1.77 1.77 0 00-.233-2.488 1.763 1.763 0 00-2.792 1.936c-3.159 2.121-7.51 3.133-10.992 3.617 2.08-1.368 4.093-2.844 5.958-4.491a60.155 60.155 0 002.56-2.375l.606-.427a15.53 15.53 0 012.15-1.243c6.232-3.032 6.247-9.605 6.034-10.67C98.945 89.905 101 87.17 101 87.17c-6.204 4.51-4.775 6.129-6.647 10.532a26.664 26.664 0 01-3.219 5.593 59.68 59.68 0 01-3.384 3.043c-1.902 1.594-3.943 3.01-6.046 4.316-1.045.665-2.135 1.248-3.218 1.845l-1.66.828c-.548.287-1.125.513-1.684.774a2.342 2.342 0 00-.128.055c1.086-1.253 2.692-3.279 3.397-5.019a2.006 2.006 0 001.19 1.221 2.017 2.017 0 002.675-2.34 2.022 2.022 0 00-.02-3.937 2.022 2.022 0 00-1.261-2.325 2.019 2.019 0 00-2.504.972 2.017 2.017 0 00-2.807 1.09 2.014 2.014 0 00.343 2.008 2.021 2.021 0 00.61 3.419c.435.164.899.169 1.32.033-.61 1.132-1.845 3.259-3.2 4.662.59-.783 1.553-2.618.31-5.219-1.687-3.523-.361-4.768-.361-4.768s-2.188 1.963-1.083 6.111c.8 2.997.416 4.187.143 4.619-1.825.748-3.682 1.414-5.582 1.943a58.113 58.113 0 01-7.222 1.554 57.661 57.661 0 01-7.351.538c-.394.005-.787.002-1.181-.005 1.23-1.085 3.607-2.958 6.966-4.575 5.086-2.45 7.068-.848 12.046-8.42 0 0-3.11 2.576-5.501 2.207-1.266-.196-9.004.176-12.24 7.702-.386.901-.822 1.78-1.349 2.606l-.3.472a55.688 55.688 0 01-5.786-.462c-2.433-.306-4.835-.823-7.196-1.474l-.885-.248a13.05 13.05 0 01-.877-.266l-.118-.038c4.858.158 8.858-1.632 10.806-2.714a1.496 1.496 0 002.329.286 1.5 1.5 0 00-2.104-2.139 1.502 1.502 0 00-.406 1.414c-4.57 2.433-11.482 2.199-13.773 2.041l-.193-.075c-.283-.113-.574-.211-.855-.334l-.842-.367-.84-.366-.421-.184-.411-.203-1.644-.811c-.554-.256-1.076-.58-1.612-.871l-.8-.447a11.863 11.863 0 01-.79-.464c-1.032-.653-2.077-1.278-3.062-2.001l-.62-.435a31.314 31.314 0 017.653.091c5.592.748 6.374 3.176 14.684-.419 0 0-4.01.444-5.808-1.178-.953-.858-7.625-4.802-14.45-.289a18.147 18.147 0 01-2.555 1.436l-.017.008-.008-.005-1.802-1.406c-1.877-1.551-3.697-3.176-5.342-4.971l-.626-.663c-.208-.22-.399-.459-.6-.687l-1.185-1.386-1.118-1.441c-.185-.241-.376-.477-.554-.723l-.521-.749c-.138-.188-.27-.379-.404-.57 1.607.453 3.695.947 5.277.99a2.021 2.021 0 001.296 3.567c.4 0 .784-.115 1.11-.334a2.01 2.01 0 001.677.897 2.022 2.022 0 001.998-2.297 2.023 2.023 0 00-.058-4.01 2.021 2.021 0 00-2.005-2.252c-.74 0-1.404.4-1.757 1.027a2.021 2.021 0 00-2.55 3.025c-1.273-.173-3.694-.585-5.484-1.363.94.279 2.995.537 4.988-1.544 2.7-2.82 4.329-2.013 4.329-2.013s-2.604-1.364-6.091 1.132c-1.82 1.3-2.975 1.694-3.665 1.77a60.867 60.867 0 01-2.451-4.236l-.815-1.626c-.27-.543-.496-1.108-.747-1.657l-.366-.831c-.122-.276-.22-.565-.333-.846L3 83.299l-.03-.075a1.53 1.53 0 00-2.015-.859 1.533 1.533 0 00-.827 2.006l.734 1.775c.126.294.238.593.374.884l.408.868c.278.575.534 1.163.832 1.728l.903 1.692a62.605 62.605 0 002.867 4.644 26.206 26.206 0 01-.687 3.13c-2.992 10.741 4.89 17.755 6.4 18.634 2.847 1.657 3.948 7.044 3.948 7.044 1.183-12.281-2.284-12.281-5.582-19.228a43.343 43.343 0 01-2.85-7.88l.062.083.57.77c.195.251.4.495.6.743l1.211 1.479 1.281 1.421c.216.234.421.48.647.703l.674.678c1.429 1.484 2.978 2.842 4.572 4.137 2.773 2.561 8.59 8.488 10.41 14.632a2.033 2.033 0 001.055 3.768 2.033 2.033 0 10-.458-4.014c-.645-2.323-2.093-6.347-5.076-10.191.516.312 1.038.615 1.556.924.266.181.547.329.828.475zm35.944 7.546a1.403 1.403 0 012.534.55l.083.45.383-.249a1.398 1.398 0 011.562.028 1.407 1.407 0 01.02 2.294l-.371.269.419.258c.012.008.027.016.04.026a1.407 1.407 0 01-1.605 2.309 1.064 1.064 0 01-.097-.075l-.356-.299-.133.445a1.402 1.402 0 01-2.146.75 1.408 1.408 0 01-.544-1.559l.13-.434-.45.04a1.407 1.407 0 11.18-2.774l.732.163-.406-.63a1.4 1.4 0 01.025-1.562zm17.027-12.51a1.397 1.397 0 01-1.524.362 1.412 1.412 0 01-.822-1.813 1.4 1.4 0 01.622-.728l.393-.223-.353-.284a1.409 1.409 0 01-.436-1.592 1.409 1.409 0 012.193-.605l.363.292.126-.447a1.406 1.406 0 011.845-.939 1.41 1.41 0 01.801 1.858l-.198.452.46.01c.162.002.318.032.463.087a1.413 1.413 0 01.822 1.813c-.2.535-.7.894-1.268.911l-.456.015.188.417c.153.342.165.721.035 1.07a1.41 1.41 0 01-1.81.823 1.402 1.402 0 01-.91-1.275l-.023-.748-.51.544zM14.465 94.971c0-.776.63-1.406 1.404-1.406.328 0 .65.115.9.329l.346.29.14-.429a1.403 1.403 0 112.667.874l-.143.442.462-.04a1.406 1.406 0 11.123 2.807c-.016 0-.033 0-.048-.003l-.492-.028.153.435a1.406 1.406 0 01-1.323 1.873 1.4 1.4 0 01-1.299-.872l-.175-.424-.323.322a1.406 1.406 0 11-1.521-2.3l.691-.284-.692-.284a1.405 1.405 0 01-.87-1.302zM2.97 46.75l.025-.067.652-1.694c.113-.282.21-.568.333-.847l.366-.83c.251-.553.477-1.115.747-1.657l.815-1.627a60.863 60.863 0 012.451-4.236c.69.078 1.845.47 3.665 1.77 3.487 2.493 6.091 1.133 6.091 1.133s-1.63.806-4.329-2.014c-1.993-2.081-4.048-1.822-4.988-1.544 1.79-.778 4.211-1.19 5.484-1.363a2.021 2.021 0 002.55 3.025 2.012 2.012 0 001.757 1.027 2.021 2.021 0 002.005-2.252 2.023 2.023 0 00.058-4.01 2.021 2.021 0 00-1.998-2.297c-.684 0-1.306.342-1.677.897a2.005 2.005 0 00-1.11-.334 2.021 2.021 0 00-1.296 3.567c-1.58.043-3.67.538-5.277.99.133-.191.266-.382.404-.57l.521-.748c.18-.244.371-.483.554-.724l1.118-1.44 1.186-1.386c.2-.229.388-.467.599-.688l.627-.663c1.641-1.798 3.463-3.422 5.341-4.97l1.802-1.407.008-.005.017.008c.893.401 1.74.896 2.555 1.436 6.825 4.514 13.5.57 14.45-.289 1.797-1.622 5.808-1.18 5.808-1.18-8.31-3.595-9.092-1.165-14.684-.42a31.297 31.297 0 01-7.652.091l.619-.434c.982-.723 2.03-1.35 3.063-2.001.255-.168.521-.316.79-.464l.799-.447c.536-.291 1.058-.613 1.612-.871l1.644-.811.411-.204.421-.183.84-.367.842-.366c.28-.123.569-.221.855-.334l.193-.075c2.29-.158 9.204-.39 13.773 2.043a1.498 1.498 0 002.527 1.396 1.5 1.5 0 10-2.346-1.838c-1.945-1.08-5.948-2.872-10.806-2.713l.118-.038c.288-.1.581-.188.877-.266l.885-.249c2.359-.65 4.762-1.167 7.196-1.473a56.382 56.382 0 015.785-.462l.301.472a18.05 18.05 0 011.349 2.605c3.233 7.525 10.974 7.896 12.24 7.703 2.39-.37 5.501 2.207 5.501 2.207-4.978-7.572-6.96-5.97-12.046-8.42-3.356-1.617-5.735-3.488-6.966-4.575.394-.005.787-.01 1.18-.005 2.457.023 4.914.2 7.352.537 2.434.364 4.848.882 7.222 1.554 1.897.528 3.757 1.195 5.582 1.944.273.429.66 1.621-.143 4.619-1.108 4.145 1.083 6.11 1.083 6.11s-1.326-1.242.36-4.767c1.247-2.6.282-4.436-.31-5.22 1.356 1.404 2.592 3.53 3.201 4.663a2.007 2.007 0 00-1.321.032 2.023 2.023 0 00-.61 3.42 2.02 2.02 0 00-.343 2.008 2.018 2.018 0 002.808 1.09 2.02 2.02 0 002.504.971 2.023 2.023 0 001.26-2.325c.091-.02.179-.047.266-.077a2.023 2.023 0 00-.245-3.86 2.018 2.018 0 00-2.674-2.34 1.997 1.997 0 00-1.191 1.221c-.705-1.74-2.311-3.763-3.4-5.018.043.017.086.035.129.055.561.258 1.135.487 1.684.773l1.66.829c1.082.597 2.173 1.182 3.218 1.845 2.103 1.303 4.143 2.721 6.046 4.316a59.752 59.752 0 013.384 3.042 26.564 26.564 0 013.218 5.594c1.872 4.403.444 6.022 6.647 10.531 0 0-2.055-2.734-1.651-4.747.213-1.064.198-7.637-6.034-10.667a15.38 15.38 0 01-2.15-1.243l-.607-.427a60.23 60.23 0 00-2.56-2.375c-1.866-1.647-3.877-3.123-5.957-4.491 3.486.5 7.838 1.511 10.996 3.633a1.763 1.763 0 002.792 1.935 1.77 1.77 0 00.234-2.488 1.763 1.763 0 00-2.76.056c-2.128-1.482-7.294-3.874-13.1-4.273a378.07 378.07 0 00-1.39-.816l-1.66-.881c-.55-.304-1.126-.55-1.687-.826-2.269-1.06-4.6-2.009-6.998-2.742a55.894 55.894 0 00-1.532-.45 26.499 26.499 0 016.442-1.691c4.737-.63 5.913 1.182 11.911-3.6 0 0-3.18 1.252-5.008.326-.967-.49-7.294-2.232-11.876 2.972a15.493 15.493 0 01-1.772 1.743l-.153.125a58.41 58.41 0 00-5.332-1.195 58.734 58.734 0 00-5.469-.635c1.574-.547 3.57-1.333 4.888-2.202a2.017 2.017 0 003.818 1.28 2.005 2.005 0 001.887-.223 2.026 2.026 0 00.333-3.027 2.02 2.02 0 00-2.331-3.259 2.019 2.019 0 00-2.928-.703 2.019 2.019 0 00-.857 1.848 2.014 2.014 0 00-.935.349 2.026 2.026 0 00-.506 2.811c.266.382.644.65 1.068.781-1.146.585-3.367 1.63-5.282 2.014.93-.31 2.765-1.27 3.216-4.118.612-3.858 2.407-4.127 2.407-4.127s-2.916.372-4.357 4.411C54.884 9.271 53.528 9.84 53.13 9.93c-2.35-.06-4.707.065-7.05.304-2.512.25-5.001.718-7.453 1.328l-.92.233c-.308.076-.611.156-.912.254l-.64.193a31.68 31.68 0 016.072-3.82C47.312 5.97 49.294 7.57 54.272 0c0 0-3.11 2.576-5.502 2.207-1.265-.196-9.003.175-12.24 7.702a18.05 18.05 0 01-1.348 2.606l-.015.025-.188.058c-.601.195-1.193.416-1.792.622-.298.108-.6.204-.892.322l-2.201.89-.431.2-1.725.795c-.581.251-1.13.572-1.694.859l-.842.441c-.281.146-.562.294-.833.46-.518.309-1.04.612-1.556.924 2.983-3.844 4.431-7.868 5.076-10.19a2.033 2.033 0 10.459-4.014 2.033 2.033 0 00-1.056 3.768c-1.82 6.143-7.637 12.07-10.41 14.63-1.596 1.296-3.143 2.654-4.572 4.138l-.674.678c-.226.226-.431.47-.647.703l-1.28 1.421-1.211 1.479c-.2.248-.406.492-.602.743l-.569.77c-.02.028-.04.056-.063.083a43.41 43.41 0 012.85-7.88c3.3-6.947 6.766-6.947 5.583-19.228 0 0-1.098 5.387-3.948 7.047-1.51.876-9.39 7.893-6.4 18.633a26.72 26.72 0 01.687 3.13 63.995 63.995 0 00-2.867 4.645l-.903 1.692c-.298.565-.554 1.152-.832 1.727l-.408.869c-.136.289-.249.59-.374.884l-.734 1.775-.015.035c-.304.79.087 1.68.877 1.983a1.54 1.54 0 001.99-.881zm13.06-13.312l-.692-.284a1.4 1.4 0 01-.873-1.303 1.406 1.406 0 012.394-.997l.323.322.176-.425a1.4 1.4 0 011.298-.87 1.406 1.406 0 011.324 1.872l-.153.434.491-.027.048-.003a1.406 1.406 0 11-.123 2.807l-.461-.04.143.442a1.406 1.406 0 01-1.334 1.843c-.609 0-1.145-.39-1.333-.97l-.14-.431-.347.29c-.253.212-.571.33-.9.33a1.407 1.407 0 01-.531-2.709l.69-.281zm63.79-13.226a1.406 1.406 0 011.774 1.896l-.188.416.456.015a1.409 1.409 0 01-.018 2.812l-.458.01.198.452c.008.015.013.03.02.045a1.413 1.413 0 01-.822 1.813 1.402 1.402 0 01-1.807-.824c-.015-.037-.025-.077-.038-.115l-.125-.447-.364.291a1.405 1.405 0 01-2.193-.605 1.408 1.408 0 01.436-1.591l.354-.284-.394-.224a1.409 1.409 0 01.2-2.54 1.4 1.4 0 011.525.361l.508.55.023-.748c.018-.58.376-1.082.912-1.283zM61.325 7.61l.406-.63-.732.163a1.4 1.4 0 01-1.459-.57 1.412 1.412 0 01.351-1.958 1.4 1.4 0 01.927-.246l.452.04-.13-.434a1.401 1.401 0 01.543-1.556 1.407 1.407 0 011.955.351c.086.12.148.256.19.4l.134.444.356-.3c.03-.024.062-.05.097-.075a1.407 1.407 0 011.956.352 1.412 1.412 0 01-.351 1.958c-.013.01-.028.018-.04.025l-.419.259.371.268a1.412 1.412 0 01-.02 2.295 1.4 1.4 0 01-1.562.028l-.383-.249-.083.45a1.404 1.404 0 11-2.56-1.015z" opacity=".1" fill="#800505"/></svg>