<svg width="96" height="138" fill="none" xmlns="http://www.w3.org/2000/svg"><g opacity=".2" fill="#800505"><path d="M69.906 129.94c-2.499-3.176-6.078-5.549-8.874-8.486-2.942-3.091-5.931-6.448-8.236-10.045-4.075-6.355-5.847-14.112-6.236-21.575-.412-7.997 1.185-15.534 2.857-23.291 1.681-7.782 1.87-15.657.991-23.572-.971-8.746-3.408-16.765-8.728-23.846-.263-.353-1.25.715-.917 1.161 10.093 13.434 10.78 32.63 7.21 48.5-3.154 13.999-4.477 29.607 3.127 42.546 2.131 3.623 5.007 6.857 7.81 9.975 1.503 1.669 3.102 3.25 4.742 4.78 1.783 1.661 3.823 3.088 5.336 5.014.28.351 1.26-.728.918-1.161z"/><path d="M69.704 128.803c-4.536-6.061-4.577-13.94-3.076-21.02.694-3.277 1.373-6.582 2.357-9.792 1.096-3.575 2.802-6.9 4.095-10.403 2.252-6.087 4.02-11.972 4.892-18.417.418-3.111.48-6.213.184-9.345-.232-2.463-.234-5.969-1.355-8.227-.249-.496-1.255.551-1.035.998.621 1.254.64 3.017.846 4.388.27 1.8.5 3.61.603 5.428.196 3.508-.208 6.966-.716 10.434-1.068 7.22-3.981 14.232-6.85 20.9-2.529 5.875-4.033 12.602-4.865 18.93-.772 5.857.43 12.501 4.008 17.287.257.353 1.243-.715.912-1.161z"/><path d="M68.315 128.899c.073.127.145.254.213.382l.973-1.079c-1.2-.543-2.375-2.854-3.142-3.887-1.272-1.712-2.626-3.367-3.468-5.339-1.815-4.269-2.832-8.769-3.515-13.334-.617-4.121-1.196-8.222-1.673-12.358-.46-3.984-.544-8.07-1.154-12.026-1.23-7.947-5.801-15.016-10.206-21.534-2.244-3.321-4.563-6.676-7.073-9.798-1.344-1.668-2.866-2.982-4.54-4.302-1.96-1.547-3.537-3.413-5.38-5.085-.367-.336-1.31.804-.919 1.16 1.727 1.568 3.19 3.353 5.02 4.808 1.67 1.321 3.25 2.58 4.615 4.23 2.99 3.627 5.698 7.627 8.28 11.552 4.718 7.165 8.748 14.448 9.41 23.152.62 8.173 1.612 16.417 3.1 24.476.69 3.724 1.726 7.804 3.51 11.153.772 1.45 1.838 2.743 2.814 4.059.933 1.255 1.937 3.573 3.403 4.228.427.194 1.215-.658.974-1.079a11.668 11.668 0 01-.213-.382c-.266-.488-1.265.576-1.03 1.003z"/><path d="M67.809 130.373l.572.76c.304-.387.608-.773.918-1.161-.753-.74-1.884-.92-2.82-1.405-1.297-.667-2.558-1.386-3.88-2.016-2.671-1.28-5.412-2.452-7.942-4.006-5.086-3.13-9.85-8.072-12.835-13.235-2.745-4.755-4.705-9.75-8.063-14.154-1.79-2.348-3.827-4.34-6.084-6.23-1.679-1.409-3.665-3.147-5.859-3.633-.482-.105-1.27 1.118-.726 1.24 2.5.552 4.808 2.802 6.693 4.422a35.4 35.4 0 016.284 7.026c3.123 4.619 4.91 10.015 8.151 14.526 3.108 4.32 6.989 8.396 11.534 11.203 2.525 1.561 5.27 2.727 7.941 4.007a76.37 76.37 0 013.511 1.81c.851.464 2.49.923 3.19 1.611.368.359 1.22-.76.917-1.161l-.573-.76c-.28-.357-1.267.711-.93 1.156zM41.567 19.268c-.767.608-3.266-2.197-3.728-2.599a9.117 9.117 0 01-.508-.443c-.256-.401-.616-.408-1.095-.014.009.029.475.253.507.273.454.285.828.685 1.279.982.653.433 1.274.464 1.69-.347.183-.361.155-.664.06-1.048-.055-.223-.167-.44-.244-.655-.093-.254-.13-.956-.404-.567-.22.13-.435.26-.656.39.847.324 1.17 1.489 1.416 2.273.33 1.058.832 2.031 1.166 3.083l.974-1.08c-1.03-.697-1.81-2.216-2.556-3.21-.262-.353-1.249.715-.917 1.161.18.245.366.489.546.734.262.353 1.249-.716.917-1.161-.18-.245-.366-.49-.546-.734-.262-.353-1.249.715-.917 1.161.767 1.033 1.468 2.478 2.555 3.21.452.31 1.099-.698.974-1.078-.39-1.228-.901-2.447-1.353-3.656-.3-.802-.697-1.623-1.532-1.942-.21-.083-.555.25-.657.39-.314.453-.404.81-.29 1.357.059.264.182.791.365 1.006.04.107.076.21.111.317.223-.166.452-.326.675-.492-.01-.035-.272-.111-.312-.154-.55-.61-1.952-1.854-2.782-1.232-1.471 1.098.372 2.394 1.16 3.142.861.816 2.773 2.992 4.129 1.918.427-.336.724-1.58-.027-.985zM30.06 41.807c-.395.144-.937-.184-1.3-.326-.812-.322-1.564-.691-2.283-1.182-.796-.547-2.134-1.475-2.384-2.459-.169.33-.332.66-.501.991.809-.496 1.615.991 2.367 1.037.367.024.737-.4.843-.717.16-.47.088-.692-.006-1.164a3.545 3.545 0 01-.113-.652c-.173.142-.344.29-.522.434-.005.065.465.484.533.57a9.612 9.612 0 011.167 1.877c.36.754.88 1.726 1.098 2.531l.974-1.079c-.582-.317-1.034-.844-1.593-1.217-.559-.373-1.17-.694-1.704-1.1-.41-.312-1.317.841-.917 1.162.644.51 1.428.947 2.062.2.8-.942-.147-1.96-.34-2.91l-1.036.998c.328.522.491 1.093.758 1.64.252.524 1.178-.56 1.036-.998a19.59 19.59 0 01-.55-2.133c-.355.292-.704.59-1.06.882.022.033.043.066.058.094.307.49 1.293-.59 1.036-.998-.021-.033-.043-.066-.058-.093-.313-.495-1.135.52-1.06.882.16.8.34 1.58.591 2.358l1.036-.997c-.26-.542-.423-1.112-.752-1.635-.343-.55-1.12.602-1.035.998.075.356.786 1.413.609 1.78.244-.24.488-.472.732-.711-.399.115-.82-.286-1.11-.512-.303.386-.607.773-.917 1.16.533.406 1.14.727 1.704 1.1.558.367 1.017.899 1.593 1.217.482.264 1.09-.668.974-1.079-.177-.64-.548-1.233-.8-1.852a10.812 10.812 0 00-1.168-2.153c-.272-.388-.657-1.104-1.137-1.239-.498-.145-.906.254-1.123.684-.154.305-.181.59-.168.924.015.293.322.994.243 1.232.28-.236.564-.474.843-.717-.604-.039-1.057-.783-1.654-.975-.604-.198-.955-.123-1.477.2-.298.18-.589.63-.502.99.317 1.265 2.12 2.418 3.134 3.023.957.57 2.501 1.5 3.632 1.091.457-.174 1.027-1.438.247-1.157z"/><path d="M22.539 85.772c-1.274.806-3.81.694-5.033-.159-.28-.192-.499-.574-.802-.71-.284-.128-1.127-.14-.086-.091.709.033 1.241.38 1.888.59.408.131.812-.578.891-.87.265-.952-.711-1.85-.911-2.751-.038.186-.076.378-.12.566.03-.056.065-.107.094-.164-.215.183-.436.366-.65.55.49-.138 1.573 1.407 1.81 1.698.56.685 1.28 1.411 1.646 2.212l.88-1.122c-.805-.004-1.536-.282-2.325-.4-.993-.154-1.82-.35-2.547-1.117-.272.4-.545.801-.824 1.203.693-.006 1.378.076 2.033.31.207-.412.409-.822.615-1.24-.41.064-.823.05-1.206-.118l-.3.956c.45-.455 1.732.032 2.274.142.409.084 1.093-.74.88-1.121-.184-.333-.402-.609-.641-.906-.287-.356-1.237.726-.918 1.161.158.206.311.419.47.625.262.353 1.249-.716.917-1.161-.158-.206-.311-.419-.47-.625-.303.387-.607.774-.917 1.161.196.231.37.477.524.742.293-.374.587-.748.881-1.116-1.179-.24-2.373-.613-3.319.346-.095.098-.64.8-.3.957.533.24 1.049.277 1.628.195.353-.05 1.184-1.037.615-1.239-.655-.233-1.347-.315-2.034-.31-.405.005-1.212.788-.824 1.204.678.713 1.458 1.009 2.404 1.163.88.143 1.758.428 2.653.435.418.006 1.083-.674.881-1.116-.445-.992-1.353-1.915-2.06-2.73-.4-.462-1.131-1.551-1.86-1.435-.467.075-.972.72-.96 1.189.009.299.26.653.367.93.137.338.638 1.088.542 1.44.297-.292.594-.578.891-.87-1.055-.341-2.145-.997-3.226-.3-.554.355-1.203 1.233-.72 1.88.138.184.587.411.762.556.285.24.512.479.839.672.515.302 1.114.447 1.707.499 1.342.115 2.824.016 3.972-.712.494-.314.801-1.519-.011-.999zM77.573 53.36c-.771-1.014-1.603-1.992-2.325-3.041-.448-.645-1.669-2.215-1.423-3.072-.217.271-.433.548-.65.82.7-.367 1.857 2.158 2.003 2.63.15.495 1.159-.529 1.036-.998a6.519 6.519 0 01-.18-1.203c-.014-.175-.17-.729.03-.51.355.385.33 1.329.332 1.817.012 1.222-.248 2.428-.23 3.65.335-.32.67-.646.999-.965-.622-.83-.87-2.22-.567-3.143.206-.635.232-1.085.029-1.75-.184-.598-1.042.627-1.06.882-.029.327-.014.349.08.662.147.484 1.183-.508 1.035-.998-.01-.145-.026-.285-.036-.43-.356.292-.705.59-1.06.882.256.83-.344 1.297-.297 2.145.049.918.413 2.184.952 2.912.311.418 1.002-.717.999-.964-.017-1.204 1.06-5.807-.714-6.369-.652-.204-1.206.575-1.438 1.084-.447 1.002-.188 2.274.074 3.304l1.035-.998c-.343-1.132-2.322-4.39-3.403-2.11-.453.956.358 2.06.828 2.85.867 1.456 1.997 2.737 3.016 4.077.286.35 1.272-.724.935-1.163z"/><path d="M77.364 53.325c-2.93.679-7.712-4.903-8.97-7.07-.443-.762-.813-1.603-.912-2.492a4.24 4.24 0 01.343-2.315c.658-.532 1.316-1.07 1.974-1.602 1.037-.086 1.667 1.35 2.602 1.57.398.091.833-.545.891-.87.197-1.086.633-2.3 1.948-1.41.21.141.533.929.878 1.073 1.056.46 1.611-.58 2.792.36 1.767 1.41 1.11 4.695.788 6.567-.177 1.055-.363 2.134-.63 3.17.095-.363-.873 2.992-.984 2.892-.355-.337-1.3.792-.917 1.161.092.09.184.174.276.263.086.085.25.026.34-.008 1.876-.738 2.165-4.064 2.53-5.705.566-2.575 1.828-7.04-.281-9.3-.808-.869-1.257-.625-2.186-.78-.904-.153-1.094-.379-1.694-.854-.406-.325-.75-.77-1.311-.848-2.042-.28-2.376 2.588-2.616 3.914.296-.291.594-.577.89-.87-.905-.21-1.38-1.252-2.34-1.486-.792-.195-1.373-.025-2.037.402-1.49.972-2.37 3.058-2.395 4.796-.04 2.711 1.995 4.932 3.78 6.722 1.515 1.515 4.3 4.512 6.724 3.948.472-.1 1.147-1.374.517-1.228zM41.785 22.079c.023.044.04.09.063.134.12-.29.24-.58.36-.876-2.156 1.91-7.864-2.573-9.431-3.982-1.045-.937-2.026-1.987-2.932-3.051-.246-.314-.499-.627-.745-.94-.932-1.245-.306-2.38 1.886-3.4.894.113 1.634.955 2.108 1.62.369.512 1.153-.581 1.036-.998-.404-1.46-.604-2.68.988-2.533.452.044.695.328 1.2.166 1.364-.428 1.518-3.016 3.113-1.351 1.776 1.85 2.803 4.212 3.382 6.678.724 3.073-.05 5.483-.494 8.468.349-.251.698-.496 1.046-.746-.066-.17-.138-.344-.204-.513-.067-.657-1.13.302-1.084.774.041.424.013.38.247.737.318.482 1.003-.44 1.046-.746.252-1.698.908-3.26.92-4.997.015-1.878-.295-3.662-.874-5.439-.538-1.664-2.462-6.603-4.824-6.318-.696.084-.922.691-1.332 1.13-.185.557-.596.885-1.225.99a10.472 10.472 0 00-.839-.46c-.497-.033-.505-.208-1.008-.029-1.947.681-1.49 3.737-1.095 5.181l1.036-.997c-1.35-1.892-3.092-2.434-4.979-.948-1.584 1.247-2.196 2.933-1.092 4.722 1.777 2.874 4.84 5.252 7.731 6.884 2.045 1.15 4.71 2.642 6.733.852.193-.169.492-.596.361-.876-.022-.044-.04-.09-.062-.134-.23-.492-1.25.545-1.035.998zM31.319 43.556c-.782 1.322-5.589-.344-6.582-.716-1.951-.73-3.727-1.84-5.321-3.174-1.18-.993-2.407-2.139-3.026-3.582-.547-1.27-.935-4.344 2.07-3.595.514.125 1.048.648 1.56.862.364.154.857-.596.89-.87.165-1.165-.506-1.914 1.046-1.97.515-.015.937.18 1.43-.04.459-.21.535-.53.843-.83.622-.592-.198-.672.849-.77.698-.066.972.339 1.404.838 1.693 1.96 2.738 5.114 3.572 7.545.757 2.205.977 4.61 1.73 6.791l1.036-.997c-.021-.033-.042-.06-.063-.093-.336-.48-1.308.61-1.036.997.021.033.042.06.064.093.35.503 1.182-.572 1.035-.997-1.104-3.213-1.583-6.472-2.941-9.645-.714-1.668-1.99-6.21-4.517-6.105-.779.033-1.066.46-1.476 1.005-.22.295-.312.9-.634 1.065-.2.104-1.088-.156-1.28-.146-2.75.123-1.85 1.882-2.111 3.758.297-.292.594-.578.89-.87-1.171-.493-2.123-1.546-3.49-1.041-.807.301-1.415 1.175-1.786 1.91-1.1 2.175-.334 4.297 1.179 6.064 2.095 2.456 5.07 4.314 8.126 5.304 2.256.726 5.871 1.83 7.342-.65.51-.864-.447-.745-.803-.141zM24.393 86.53c-2.52 1.81-6.24 2.67-9.217 1.601a11.82 11.82 0 01-3.718-2.134c-.448-.385-.91-.787-1.3-1.232-1.213-1.39.156-3.088 1.87-2.261.485.234 1.235-.743.918-1.161.778 1.02-1.2-1.59-1.196-1.556-.488-.475-.356-.507.401-.097.13.056.254.113.383.169.375.094.614.232.997.136 1.174-.283.992-1.398 1.317-2.223.438-.713.87-1.426 1.309-2.14l1.057.466c.671.378 1.315.936 1.874 1.468 1.052 1.001 1.924 2.18 2.75 3.371 1.623 2.338 3.244 4.706 3.716 7.571.11.67 1.16-.305 1.084-.773-.493-3.005-7.718-17.022-11.7-12.39-.782.91-.674 1.927-1.146 2.868-.386.76-.236.362-1.163.118-.327-.088-.624-.22-.968-.146-2.59.564-.384 3.32.372 4.306.304-.386.608-.773.918-1.16-1.578-.76-3.01-.425-4.053 1.038-1.221 1.713-.261 3 1.085 4.263 4.108 3.855 9.88 4.15 14.453.865.431-.301.736-1.53-.043-.966zm26.596-42.888c.13-2.368 1.095-4.958 2.539-6.836.364-.476.768-.92 1.21-1.329.779-1.092 1.758-.901 2.932.569.163 1.14-1.346 3.226-2.081 4.126-.844 1.029-2.82 2.725-4.334 2.952-.85.13-3.313-1.244-3.916-1.589-1.746-1.006-3.358-2.71-4.477-4.362-.386-.569-1.138-1.515-1.143-2.197-.03-2.014 1.418-1.099 2.416-.374 1.643 1.194 2.808 2.682 3.825 4.423.864 1.48 1.806 2.923 1.671 4.726-.044.611 1.047-.31 1.084-.773.224-2.96-2.35-6.61-4.42-8.51-1.211-1.113-4.246-3.611-5.68-1.481-1.477 2.2 1.482 5.712 2.853 7.201 1.21 1.313 2.49 2.26 4.079 3.06 1.19.597 1.978 1.35 3.298 1.11 2.115-.388 4.01-2.11 5.324-3.733 1.2-1.48 3.888-4.956 2.156-7-1.651-1.946-4.128 1.212-5.124 2.411-1.92 2.302-3.13 5.384-3.291 8.373-.037.622 1.054-.306 1.079-.767zm25.738 31.68c-2.347-.274-3.912-1.553-5.568-3.176-.62-.607-4.09-4.264-2.875-5.293 1.832-1.556 7.549 6.457 7.606 8.133.025.65 1.101-.299 1.084-.773-.098-2.678-6.666-11.42-9.481-8.078-1.262 1.5-.091 3.628.845 4.966 1.805 2.588 4.451 5.082 7.656 5.456.5.062 1.257-1.175.733-1.235z"/><path d="M76.934 75.664c1.319-2 2.738-3.781 4.524-5.38.668-.598 1.383-1.207 2.14-1.697a6.383 6.383 0 012.255-.974c1.634-.264 2.095.338 1.376 1.806-.438 3.255-3.462 4.51-6.402 5.089-.903.177-3.747.934-4.427-.003-.347-.479-1.313.617-1.036.998 1.278 1.764 6.198.217 7.831-.482 2.24-.955 5.586-3.756 5.85-6.41.3-3.056-3.227-2.312-4.892-1.374-3.392 1.913-5.924 5.1-8.028 8.287-.541.843.433.717.81.14zm-21.473 8.71c.02-.032.041-.058.061-.09.262-.287.518-.575.78-.863-2.075.696-4.452-.44-6.148-1.623-1.363-.948-3.48-2.649-4.083-4.211-1.459-3.815 3.07-.995 4.108.037 1.731 1.72 3.067 3.849 4.512 5.8.353.473 1.319-.623 1.036-.998-1.376-1.859-8.384-12.335-10.95-6.796-1.12 2.413 1.566 4.833 3.152 6.245 1.978 1.769 5.12 3.702 7.88 2.778.347-.115.73-.481.781-.863.008-.09.022-.173.03-.263.015-.13.025-.355-.165-.37l-.261-.023c-.505-.044-1.25 1.191-.733 1.24z"/><path d="M57.094 82.61c.046-1.806.485-3.46 1.33-5.06.331-.626 1.993-3.71 2.874-3.773.532.506 1.07 1.005 1.602 1.51a7.973 7.973 0 01-.351 1.175c-.395 1.108-.973 2.15-1.795 3-.591.607-1.355 1.139-2.039 1.656-.25.186-2.118 1.147-2.053.993.36-.893-.758-.31-.961.189-.17.419-.203.505-.247.95-.016.126-.025.362.164.37 2.123.112 4.805-2.58 6.057-4.067 1.111-1.323 3.424-5.057 2.164-6.823-1.42-1.984-3.786 1.215-4.586 2.221-1.946 2.434-3.15 5.298-3.232 8.431-.03.633 1.06-.306 1.073-.772zm-16.862 24.988c-2.125.289-4.18.058-6.203-.641-1.314-.448-2.515-.997-3.65-1.789-.567-.395-2.492-1.582-2.543-2.359-.198-3.366 6.475.334 7.253.883 1.678 1.184 3.05 2.42 4.302 4.058.275.358 1.243-.72.918-1.161-.056-.076-.118-.157-.173-.234-.263-.353-1.25.716-.918 1.161.055.077.117.158.173.234.304-.387.608-.773.918-1.161-1.932-2.515-4.844-5.227-8.004-6.053-1.798-.465-4.437-.136-5.398 1.741-1.096 2.146 2.51 4.175 3.958 4.932 2.727 1.426 5.822 2.03 8.863 1.616.464-.058 1.165-1.318.504-1.227z"/><path d="M41.067 107.699c-.646.007-.239-4.215-.181-4.545.15-.917 1.42-5.476 2.39-3.46.52 1.084.44 2.905.126 4.046-.285 1.031-.89 1.94-1.512 2.797-.316.435-.782 1.211-1.25 1.492.184.08.364.16.55.245l.048-.199c.188-.792-.948.04-1.056.493l-.049.2c-.104.441.291.397.55.245.937-.569 1.52-1.616 2.14-2.491.62-.875 1.174-1.819 1.514-2.839.623-1.905.698-4.56-.84-6.025-.079-.074-.263-.036-.34.008-3.478 2.034-4.136 7.596-3.112 11.153.03.067.083.108.155.124.053 0 .1.001.152-.005.488-.001 1.196-1.245.715-1.239zm25.929-4.592c.033.037.073.074.106.111.207.224.644-.236.748-.353.717-.798 1.088-1.851 1.652-2.755 1.119-1.789 3.74-4.869 6.25-4.077 4.49 1.413-1.708 4.685-2.935 5.121-.272.095-4.41 1.631-4.62.754-.12.29-.241.58-.361.876.063-.066.126-.132.19-.192.48-.494.384-1.466-.318-.747-.338.343-.814.879-.458 1.386.538.764 2.598-.059 3.313-.238 2.844-.705 6.443-2.234 7.713-5.14 1.253-2.857-2.233-3.488-4.273-2.743-1.452.531-2.736 1.568-3.755 2.717-1.217 1.37-1.791 3.246-2.983 4.579.251-.116.497-.232.748-.354-.033-.037-.073-.074-.106-.111-.32-.341-1.285.766-.911 1.166zM40.499 54.214c0-.682.037-.192-.563-.143-.455.033-.937.245-1.39.343a12.913 12.913 0 01-3.704.211c-1.733-.143-4.808-.778-5.935-2.241-1.21-1.572 1.644-1.877 2.707-1.725 1.004.142 1.979.504 2.918.865 1.32.506 2.613 1.074 3.847 1.76.896.501 1.742 1.231 2.614 1.675.486.246 1.33-.947.918-1.16-1.565-.803-3-1.968-4.675-2.705-1.898-.837-3.986-1.799-6.104-1.758-1.56.032-5.096 1.331-3.806 3.53.559.95 2.11 1.583 3.045 2.003 1.818.81 3.719 1.14 5.708 1.048 1.345-.061 5.503-.364 5.505-2.465-.001-.647-1.085.291-1.085.762z"/></g></svg>