<svg width="284" height="284" viewBox="0 0 284 284" fill="none" xmlns="http://www.w3.org/2000/svg">
<path d="M48.4058 217.207C65.6836 238.672 90.1863 254.081 118.227 259.717L48.4058 189.906V217.207Z" fill="#800505"/>
<path d="M217.207 235.594C238.462 218.486 253.781 194.293 259.547 166.603L189.946 235.594H217.207Z" fill="#800505"/>
<path d="M66.7931 48.4059C45.548 65.5038 30.2388 89.6768 24.4629 117.357L94.0439 48.4059H66.7931Z" fill="#800505"/>
<path d="M129.009 261.366C133.276 261.826 137.603 262.065 142 262.065C166.553 262.065 189.377 254.691 208.393 242.04H109.693L129.009 261.366Z" fill="#800505"/>
<path d="M155.131 22.6541C150.814 22.1844 146.437 21.9346 142 21.9346C117.447 21.9346 94.6235 29.3094 75.6069 41.9605H174.407L155.131 22.6541Z" fill="#800505"/>
<path d="M262.065 142C262.065 117.447 254.691 94.6233 242.04 75.6067V174.847L261.266 155.78C261.796 151.263 262.065 146.667 262.065 142Z" fill="#800505"/>
<path d="M21.9346 142C21.9346 166.553 29.3094 189.377 41.9605 208.393V109.123L22.734 128.17C22.2144 132.707 21.9346 137.323 21.9346 142Z" fill="#800505"/>
<path d="M165.913 24.3229L235.584 94.1037V66.793C218.346 45.3681 193.893 29.9789 165.913 24.3229Z" fill="#800505"/>
<path d="M272.838 86.7189C265.683 69.8108 255.45 54.6215 242.409 41.5907C229.368 28.5499 214.189 18.3171 197.281 11.1621C179.763 3.75735 161.167 0 142 0C122.834 0 104.237 3.75735 86.7189 11.1621C69.8108 18.3171 54.6215 28.5499 41.5907 41.5907C28.5499 54.6315 18.3171 69.8108 11.1621 86.7189C3.75735 104.237 0 122.834 0 142C0 161.167 3.75735 179.763 11.1621 197.281C18.3171 214.189 28.5499 229.378 41.5907 242.409C54.6315 255.45 69.8108 265.683 86.7189 272.838C104.237 280.243 122.834 284 142 284C161.167 284 179.763 280.243 197.281 272.838C214.189 265.683 229.378 255.45 242.409 242.409C255.45 229.368 265.683 214.189 272.838 197.281C280.243 179.763 284 161.167 284 142C284 122.834 280.243 104.237 272.838 86.7189ZM142 271.089C70.7002 271.089 12.9109 213.29 12.9109 142C12.9109 70.7002 70.7102 12.9109 142 12.9109C213.29 12.9109 271.089 70.7002 271.089 142C271.089 213.3 213.3 271.089 142 271.089Z" fill="#800505"/>
</svg>
