<svg width="284" height="284" viewBox="0 0 284 284" fill="none" xmlns="http://www.w3.org/2000/svg">
<path d="M216.228 47.6265V164.194L260.197 120.765C254.921 91.2358 238.862 65.4439 216.228 47.6265Z" fill="#800505"/>
<path d="M209.772 42.8798C190.486 29.6691 167.142 21.9246 142 21.9246C137.463 21.9246 132.986 22.1844 128.589 22.674L209.782 104.726V42.8798H209.772Z" fill="#800505"/>
<path d="M42.8796 74.2278C29.6689 93.5142 21.9243 116.858 21.9243 142C21.9243 147.057 22.2441 152.043 22.8537 156.95L104.846 74.2278H42.8796Z" fill="#800505"/>
<path d="M241.12 209.772C254.331 190.486 262.075 167.142 262.075 142C262.075 137.513 261.826 133.076 261.336 128.719L179.274 209.772H241.12Z" fill="#800505"/>
<path d="M74.2275 241.12C93.514 254.331 116.858 262.075 142 262.075C146.726 262.075 151.393 261.796 155.98 261.256L74.2275 179.224V241.12Z" fill="#800505"/>
<path d="M120.635 23.8333C91.156 29.1295 65.4142 45.1782 47.6167 67.7723H164.115L120.635 23.8333Z" fill="#800505"/>
<path d="M163.905 260.067C193.154 254.671 218.686 238.692 236.374 216.228H120.215L163.905 260.067Z" fill="#800505"/>
<path d="M67.772 236.374V120.795L24.1128 164.844C29.6689 193.704 45.5577 218.876 67.772 236.374Z" fill="#800505"/>
<path d="M272.838 86.7189C265.683 69.8108 255.45 54.6215 242.409 41.5807C229.368 28.5399 214.189 18.3071 197.281 11.1521C179.763 3.75735 161.167 0 142 0C122.834 0 104.237 3.75735 86.7189 11.1621C69.8108 18.3171 54.6215 28.5499 41.5907 41.5907C28.5499 54.6315 18.3171 69.8108 11.1621 86.7189C3.75735 104.237 0 122.834 0 142C0 161.167 3.75735 179.763 11.1621 197.281C18.3171 214.189 28.5499 229.378 41.5907 242.419C54.6315 255.46 69.8108 265.693 86.7189 272.848C104.237 280.253 122.834 284.01 142 284.01C161.167 284.01 179.763 280.253 197.281 272.848C214.189 265.693 229.378 255.46 242.409 242.419C255.45 229.378 265.683 214.199 272.838 197.281C280.243 179.763 284 161.167 284 142C284 122.834 280.243 104.237 272.838 86.7189ZM142 271.089C70.7002 271.089 12.9109 213.29 12.9109 142C12.9109 70.7102 70.7002 12.9109 142 12.9109C213.3 12.9109 271.089 70.7002 271.089 142C271.089 213.3 213.3 271.089 142 271.089Z" fill="#800505"/>
</svg>
