<svg width="284" height="284" viewBox="0 0 284 284" fill="none" xmlns="http://www.w3.org/2000/svg">
<path d="M183.561 254.671C211.591 244.328 234.695 223.822 248.415 197.631H127.48L183.561 254.671Z" fill="#800505"/>
<path d="M197.641 35.585V156.68L254.79 100.729C244.478 72.5689 223.922 49.3553 197.641 35.585Z" fill="#800505"/>
<path d="M32.4372 92.8146C25.6919 107.824 21.9346 124.472 21.9346 142C21.9346 154.831 23.9531 167.182 27.6805 178.774L112.571 92.8246H32.4372V92.8146Z" fill="#800505"/>
<path d="M191.185 32.4372C176.176 25.6919 159.528 21.9346 142 21.9346C129.549 21.9346 117.537 23.8332 106.245 27.3508L191.185 112.491V32.4372Z" fill="#800505"/>
<path d="M251.563 191.185C258.308 176.176 262.065 159.528 262.065 142C262.065 130.028 260.307 118.467 257.039 107.554L171.619 191.185H251.563Z" fill="#800505"/>
<path d="M92.8145 251.563C107.824 258.308 124.472 262.065 142 262.065C154.081 262.065 165.753 260.277 176.755 256.949L92.8244 171.589V251.563H92.8145Z" fill="#800505"/>
<path d="M86.3592 248.415V128.539L30.0688 185.529C40.6314 212.67 60.7872 235.014 86.3592 248.415Z" fill="#800505"/>
<path d="M99.47 29.6891C71.8794 40.1417 49.1454 60.4674 35.585 86.3592H156L99.47 29.6891Z" fill="#800505"/>
<path d="M272.838 86.7189C265.683 69.8108 255.45 54.6215 242.409 41.5907C229.368 28.5499 214.189 18.3171 197.281 11.1621C179.763 3.75735 161.167 0 142 0C122.834 0 104.237 3.75735 86.7189 11.1621C69.8108 18.3171 54.6215 28.5499 41.5907 41.5907C28.5499 54.6315 18.3171 69.8108 11.1621 86.7189C3.75735 104.237 0 122.834 0 142C0 161.167 3.75735 179.763 11.1621 197.281C18.3171 214.189 28.5499 229.378 41.5907 242.409C54.6315 255.45 69.8108 265.683 86.7189 272.838C104.237 280.243 122.834 284 142 284C161.167 284 179.763 280.243 197.281 272.838C214.189 265.683 229.378 255.45 242.409 242.409C255.45 229.368 265.683 214.189 272.838 197.281C280.243 179.763 284 161.167 284 142C284 122.834 280.243 104.237 272.838 86.7189ZM142 271.089C70.7002 271.089 12.9109 213.29 12.9109 142C12.9109 70.7102 70.7002 12.9109 142 12.9109C213.3 12.9109 271.089 70.7002 271.089 142C271.089 213.3 213.3 271.089 142 271.089Z" fill="#800505"/>
</svg>
