<svg width="284" height="284" viewBox="0 0 284 284" fill="none" xmlns="http://www.w3.org/2000/svg">
<path d="M175.047 26.5413V146.517L243.548 77.9051C227.969 53.2924 203.696 34.7255 175.047 26.5413Z" fill="#800505"/>
<path d="M259.107 168.591C261.046 160.037 262.065 151.144 262.065 142C262.065 120.815 256.569 100.919 246.946 83.6411L162.136 168.591H259.107Z" fill="#800505"/>
<path d="M204.996 244.228C230.158 228.689 249.154 204.126 257.469 175.047H137.033L204.996 244.228Z" fill="#800505"/>
<path d="M24.8925 115.409C22.9539 123.963 21.9346 132.856 21.9346 142C21.9346 163.315 27.4907 183.321 37.2338 200.669L121.904 115.409H24.8925Z" fill="#800505"/>
<path d="M78.2348 40.2517C53.4523 55.8108 34.7555 80.1736 26.5312 108.953H146.647L78.2348 40.2517Z" fill="#800505"/>
<path d="M115.409 259.108C123.963 261.036 132.856 262.066 142 262.066C162.725 262.066 182.222 256.819 199.23 247.576L115.409 162.246V259.108Z" fill="#800505"/>
<path d="M108.953 257.459V137.603L40.6416 206.395C56.2306 230.857 80.4136 249.304 108.953 257.459Z" fill="#800505"/>
<path d="M168.591 24.8925C160.037 22.9539 151.144 21.9346 142 21.9346C120.955 21.9346 101.179 27.3607 83.981 36.8641L168.591 121.834V24.8925Z" fill="#800505"/>
<path d="M272.838 86.7189C265.683 69.8108 255.45 54.6215 242.409 41.5907C229.368 28.5499 214.189 18.3171 197.281 11.1621C179.763 3.75735 161.167 0 142 0C122.834 0 104.237 3.75735 86.7189 11.1621C69.8108 18.3171 54.6215 28.5499 41.5907 41.5907C28.5499 54.6315 18.3171 69.8108 11.1621 86.7189C3.75735 104.237 0 122.834 0 142C0 161.167 3.75735 179.763 11.1621 197.281C18.3171 214.189 28.5499 229.378 41.5907 242.409C54.6315 255.45 69.8108 265.683 86.7189 272.838C104.237 280.243 122.834 284 142 284C161.167 284 179.763 280.243 197.281 272.838C214.189 265.683 229.378 255.45 242.409 242.409C255.45 229.368 265.683 214.189 272.838 197.281C280.243 179.763 284 161.167 284 142C284 122.834 280.243 104.237 272.838 86.7189ZM142 271.089C70.7002 271.089 12.9109 213.29 12.9109 142C12.9109 70.7102 70.7002 12.9109 142 12.9109C213.3 12.9109 271.089 70.7002 271.089 142C271.089 213.3 213.3 271.089 142 271.089Z" fill="#800505"/>
</svg>
