<svg width="101" height="130" viewBox="0 0 101 130" fill="none" xmlns="http://www.w3.org/2000/svg">
<g opacity="0.1">
<path d="M25.4066 113.27L26.2488 113.712C26.8128 114 27.3617 114.319 27.9433 114.57L29.6678 115.366L30.0989 115.564L32.2997 116.456C32.593 116.574 32.8963 116.669 33.192 116.779C33.7886 116.988 34.3827 117.206 34.9842 117.402L35.1722 117.46L35.1873 117.485C35.7137 118.311 36.1498 119.19 36.5358 120.091C39.7693 127.615 47.5096 127.986 48.7754 127.793C51.1667 127.427 54.2774 130 54.2774 130C49.2993 122.428 47.3166 124.03 42.2308 121.58C39.5587 120.292 37.5059 118.843 36.1598 117.759L36.799 117.952C37.0998 118.047 37.4056 118.13 37.7114 118.205L38.6313 118.439C41.0827 119.049 43.5718 119.516 46.0834 119.767C48.427 120.005 50.7807 120.134 53.1344 120.071C53.5304 120.161 54.889 120.731 56.0971 124.113C57.5384 128.152 60.4536 128.524 60.4536 128.524C60.4536 128.524 58.6564 128.255 58.0473 124.396C57.5961 121.547 55.7613 120.588 54.8313 120.279C56.7438 120.663 58.9672 121.708 60.1127 122.293C59.6891 122.421 59.3106 122.689 59.0449 123.073C58.4107 123.987 58.6363 125.25 59.5512 125.885C59.8294 126.078 60.1528 126.199 60.4862 126.234C60.4185 126.95 60.7368 127.66 61.3434 128.082C62.2558 128.717 63.5166 128.491 64.1508 127.575C64.1959 127.512 64.236 127.447 64.2711 127.379C65.1609 127.858 66.2939 127.602 66.883 126.751C67.462 125.915 67.3241 124.793 66.6022 124.12C66.6649 124.052 66.7225 123.98 66.7752 123.904C67.4093 122.99 67.1837 121.728 66.2688 121.093C65.7074 120.701 65.0005 120.626 64.3814 120.869C64.236 120.505 63.9879 120.189 63.6595 119.96C62.7471 119.325 61.4863 119.551 60.8521 120.467C60.5037 120.97 60.4085 121.585 60.5639 122.149C59.2454 121.283 57.2502 120.495 55.676 119.948C57.5084 119.822 59.3331 119.611 61.1454 119.313C62.9426 118.999 64.7198 118.597 66.4769 118.118L66.6298 118.243C67.2715 118.77 67.853 119.363 68.4019 119.985C72.984 125.19 79.3106 123.447 80.2781 122.955C82.1079 122.029 85.2863 123.282 85.2863 123.282C79.288 118.499 78.1124 120.312 73.375 119.682C70.525 119.303 68.2741 118.539 66.9331 117.99C67.4444 117.846 67.9558 117.698 68.4646 117.54C70.8659 116.805 73.1945 115.856 75.463 114.799C76.0245 114.52 76.601 114.274 77.1499 113.973L78.8093 113.091C79.273 112.82 79.7392 112.549 80.2004 112.276C86.0056 111.874 91.1717 109.481 93.2973 108C93.3775 108.106 93.4677 108.203 93.573 108.291C94.3225 108.914 95.4354 108.809 96.057 108.058C96.6787 107.307 96.5734 106.193 95.8239 105.57C95.0744 104.947 93.9615 105.053 93.3399 105.803C92.9338 106.296 92.8386 106.943 93.0316 107.506C89.8733 109.627 85.5219 110.639 82.0402 111.123C84.1207 109.755 86.1335 108.279 87.9984 106.632C88.8757 105.864 89.7279 105.073 90.5576 104.257L91.1642 103.83C91.8435 103.353 92.5679 102.949 93.3148 102.587C99.5462 99.5547 99.5612 92.9822 99.3482 91.9177C98.9446 89.9043 101 87.1703 101 87.1703C94.7962 91.6792 96.225 93.2985 94.3526 97.702C93.2797 100.225 92.0164 102.128 91.1341 103.295C90.0437 104.352 88.9158 105.369 87.7502 106.338C85.8477 107.932 83.8074 109.348 81.7044 110.654C80.6591 111.319 79.5688 111.902 78.4859 112.499L76.8266 113.327C76.2776 113.614 75.7011 113.84 75.1421 114.101C75.0995 114.118 75.0569 114.136 75.0143 114.156C76.0996 112.903 77.7064 110.877 78.4107 109.137C78.6037 109.692 79.0323 110.144 79.6013 110.358C80.6441 110.749 81.8096 110.219 82.1982 109.175C82.3385 108.799 82.3661 108.399 82.2759 108.018C82.9226 107.867 83.4615 107.403 83.7021 106.76C84.0931 105.716 83.5642 104.551 82.5215 104.159C82.4363 104.126 82.346 104.101 82.2558 104.081C82.4689 103.115 81.945 102.113 80.995 101.756C80.025 101.392 78.9496 101.827 78.4909 102.728C78.4232 102.693 78.3531 102.663 78.2804 102.635C77.2376 102.244 76.0746 102.773 75.6836 103.818C75.4229 104.511 75.5632 105.274 76.027 105.826C75.7738 106.047 75.5758 106.328 75.4555 106.644C75.0644 107.689 75.5933 108.854 76.6361 109.245C77.0722 109.409 77.5359 109.414 77.957 109.278C77.3479 110.41 76.1122 112.537 74.7561 113.94C75.3477 113.157 76.3102 111.322 75.0669 108.721C73.38 105.198 74.706 103.953 74.706 103.953C74.706 103.953 72.5177 105.916 73.6231 110.064C74.4227 113.061 74.0392 114.251 73.766 114.683C71.9412 115.431 70.0839 116.097 68.1839 116.626C65.8101 117.297 63.3988 117.816 60.9624 118.18C58.5235 118.517 56.0671 118.695 53.6106 118.718C53.2171 118.723 52.8236 118.72 52.43 118.713C53.6608 117.628 56.037 115.755 59.3958 114.138C64.4817 111.688 66.4644 113.29 71.4424 105.718C71.4424 105.718 68.3318 108.294 65.9405 107.925C64.6747 107.729 56.9369 108.101 53.7009 115.627C53.3148 116.528 52.8787 117.407 52.3523 118.233L52.0515 118.705C50.1165 118.66 48.1839 118.489 46.2663 118.243C43.8325 117.937 41.4312 117.42 39.07 116.769L38.1851 116.521C37.8894 116.441 37.5961 116.355 37.3078 116.255L37.19 116.217C42.0478 116.375 46.0483 114.585 47.9959 113.503C48.0535 113.599 48.1237 113.689 48.2039 113.772C48.7855 114.364 49.7329 114.372 50.3245 113.789C50.9135 113.209 50.9236 112.258 50.342 111.668C49.763 111.078 48.813 111.068 48.2215 111.65C47.8355 112.032 47.7001 112.569 47.8154 113.064C43.2459 115.497 36.3328 115.263 34.0418 115.105C33.9766 115.08 33.9114 115.055 33.8488 115.03C33.5655 114.917 33.2747 114.819 32.994 114.696L32.1518 114.329L31.3121 113.963L30.891 113.779L30.4799 113.576L28.8356 112.765C28.2816 112.509 27.7603 112.185 27.2239 111.894L26.4243 111.447C26.1561 111.299 25.8904 111.151 25.6347 110.983C24.602 110.33 23.5567 109.705 22.5717 108.982L21.9525 108.547C23.667 108.349 26.3766 108.206 29.6051 108.638C35.1973 109.386 35.9793 111.814 44.2887 108.219C44.2887 108.219 40.2781 108.663 38.4809 107.041C37.5284 106.183 30.8559 102.239 24.0305 106.752C23.2133 107.292 22.3686 107.787 21.4763 108.188L21.4587 108.196L21.4512 108.191L19.649 106.785C17.7716 105.234 15.9518 103.609 14.3075 101.814L13.6808 101.151C13.4728 100.931 13.2823 100.692 13.0818 100.464L11.8961 99.0777L10.7782 97.6367C10.5927 97.3957 10.4022 97.1597 10.2243 96.9137L9.70288 96.1655C9.56502 95.9772 9.43217 95.7865 9.29932 95.5956C10.906 96.0475 12.994 96.5421 14.5757 96.5848C14.1245 96.9614 13.8538 97.5212 13.8538 98.1313C13.8538 99.2459 14.7587 100.152 15.8716 100.152C16.2726 100.152 16.6561 100.037 16.982 99.8183C17.3505 100.373 17.9746 100.715 18.6589 100.715C19.7718 100.715 20.6767 99.8083 20.6767 98.6936C20.6767 98.6007 20.6692 98.5079 20.6566 98.4175C21.6342 98.2769 22.3862 97.4333 22.3862 96.4166C22.3862 95.3797 21.6016 94.5237 20.599 94.4082C20.609 94.3329 20.6115 94.255 20.6115 94.1772C20.6115 93.0625 19.7066 92.1562 18.5937 92.1562C17.8543 92.1562 17.19 92.5554 16.8366 93.183C16.5433 93.0224 16.21 92.937 15.8716 92.937C14.7587 92.937 13.8538 93.8433 13.8538 94.958C13.8538 95.4249 14.0117 95.8593 14.2874 96.2082C13.0141 96.035 10.5927 95.6233 8.80302 94.845C9.74299 95.1237 11.7984 95.3823 13.7911 93.301C16.4907 90.4817 18.12 91.2876 18.12 91.2876C18.12 91.2876 15.5156 89.9244 12.029 92.4198C10.2092 93.7203 9.05368 94.1144 8.36437 94.1898C7.48456 92.814 6.67744 91.393 5.91293 89.9545L5.0983 88.3277C4.82758 87.7854 4.602 87.2205 4.35134 86.6707L3.98537 85.8397C3.86255 85.5636 3.7648 85.2749 3.652 84.9937L3.00029 83.2991L2.97021 83.2238C2.9677 83.2137 2.96269 83.2037 2.95768 83.1937C2.63433 82.4104 1.73698 82.0388 0.954918 82.3652C0.172867 82.689 -0.198105 83.5878 0.127754 84.3711L0.862175 86.146C0.987511 86.4398 1.1003 86.7385 1.23566 87.0297L1.64423 87.8984C1.92245 88.4733 2.17813 89.0608 2.47642 89.6256L3.37878 91.3177C4.27364 92.9019 5.21611 94.4609 6.24631 95.9622C6.08589 97.0191 5.84776 98.0635 5.5595 99.0928C2.56665 109.833 10.4498 116.847 11.9588 117.726C14.8063 119.383 15.9067 124.77 15.9067 124.77C17.0898 112.489 13.6232 112.489 10.3245 105.542C8.90829 102.562 8.02348 99.8209 7.47453 97.6618C7.49458 97.6894 7.51464 97.717 7.5372 97.7447L8.10619 98.5154C8.3017 98.7664 8.50724 99.01 8.70777 99.2585L9.91845 100.737L11.1993 102.158C11.4149 102.392 11.6204 102.638 11.846 102.861L12.5203 103.539C13.949 105.023 15.4981 106.381 17.0923 107.676C19.8646 110.237 25.6823 116.164 27.5021 122.308C26.9181 122.664 26.527 123.307 26.527 124.042C26.527 125.165 27.4369 126.076 28.5574 126.076C29.6778 126.076 30.5877 125.165 30.5877 124.042C30.5877 122.92 29.6778 122.009 28.5574 122.009C28.3995 122.009 28.2466 122.029 28.0987 122.062C27.4545 119.739 26.0057 115.715 23.0228 111.871C23.5392 112.183 24.0606 112.486 24.5794 112.795C24.8451 112.976 25.1259 113.124 25.4066 113.27ZM61.3509 120.816C61.7921 120.179 62.6694 120.021 63.3061 120.465C63.6119 120.678 63.8174 120.997 63.8851 121.366L63.9678 121.816L64.3513 121.567C64.8326 121.258 65.4442 121.268 65.9129 121.595C66.5496 122.036 66.7075 122.915 66.2638 123.553C66.1736 123.681 66.0633 123.794 65.933 123.889L65.562 124.158L65.9806 124.416C65.9931 124.424 66.0082 124.432 66.0207 124.442C66.6574 124.883 66.8153 125.762 66.3716 126.4C65.9305 127.037 65.0532 127.196 64.4165 126.751C64.3839 126.729 64.3513 126.704 64.3187 126.676L63.9628 126.377L63.8299 126.822C63.7873 126.965 63.7222 127.1 63.6394 127.221C63.1983 127.858 62.321 128.017 61.6843 127.572C61.1855 127.226 60.9674 126.598 61.1404 126.013L61.2707 125.579L60.8195 125.619C60.4912 125.649 60.1628 125.561 59.8921 125.373C59.2554 124.931 59.0975 124.052 59.5412 123.415C59.867 122.943 60.4411 122.719 61 122.845L61.7319 123.008L61.3259 122.378C61.0151 121.903 61.0251 121.288 61.3509 120.816ZM78.3781 108.306C77.9896 108.728 77.3905 108.869 76.8541 108.668C76.1297 108.397 75.7613 107.583 76.032 106.855C76.1473 106.547 76.3679 106.288 76.6536 106.127L77.0471 105.904L76.6937 105.62C76.22 105.239 76.0445 104.598 76.2576 104.028C76.5308 103.303 77.3404 102.934 78.0673 103.205C78.2052 103.258 78.333 103.331 78.4508 103.423L78.8143 103.715L78.9396 103.268C78.9496 103.228 78.9622 103.19 78.9772 103.152C79.2479 102.427 80.06 102.058 80.7844 102.329C81.5088 102.6 81.8773 103.413 81.6066 104.141C81.6016 104.157 81.5941 104.172 81.5865 104.187L81.3885 104.639L81.8472 104.649C82.0102 104.651 82.1656 104.681 82.3109 104.736C83.0354 105.01 83.4038 105.821 83.1331 106.549C82.9326 107.084 82.4338 107.443 81.8648 107.46L81.4086 107.475L81.5966 107.892C81.7495 108.234 81.762 108.613 81.6317 108.962C81.3584 109.687 80.5488 110.056 79.8219 109.785C79.2855 109.584 78.9296 109.082 78.912 108.51L78.8895 107.762L78.3781 108.306ZM14.4654 94.9705C14.4654 94.1948 15.0945 93.5646 15.8691 93.5646C16.1974 93.5646 16.5183 93.6801 16.7689 93.8935L17.1148 94.1847L17.2552 93.7554C17.4457 93.1755 17.9821 92.7864 18.5887 92.7864C19.3632 92.7864 19.9924 93.4165 19.9924 94.1923C19.9924 94.3404 19.9698 94.486 19.9222 94.6291L19.7793 95.071L20.2405 95.0308C20.2806 95.0283 20.3207 95.0258 20.3634 95.0258C21.1379 95.0258 21.767 95.6559 21.767 96.4316C21.767 97.2074 21.1379 97.8375 20.3634 97.8375C20.3483 97.8375 20.3308 97.8375 20.3157 97.835L19.8244 97.8074L19.9773 98.2417C20.03 98.3949 20.0576 98.5505 20.0576 98.7087C20.0576 99.4845 19.4284 100.115 18.6539 100.115C18.0824 100.115 17.5735 99.7732 17.3555 99.2434L17.18 98.8192L16.8567 99.1405C16.591 99.4041 16.24 99.5497 15.8666 99.5497C15.092 99.5497 14.4629 98.9196 14.4629 98.1438C14.4629 97.5714 14.8063 97.0593 15.3352 96.8409L16.027 96.5572L15.3352 96.2735C14.8063 96.0551 14.4654 95.5429 14.4654 94.9705Z" fill="#800505"/>
<path d="M2.97021 46.7509L2.99528 46.6831L3.64698 44.9885C3.75978 44.7073 3.85754 44.4211 3.98036 44.1424L4.34632 43.3115C4.59698 42.7591 4.82257 42.1968 5.09328 41.6545L5.90792 40.0277C6.67242 38.5892 7.47955 37.1682 8.35936 35.7924C9.04867 35.8703 10.2042 36.2619 12.024 37.5624C15.5106 40.0553 18.115 38.6946 18.115 38.6946C18.115 38.6946 16.4857 39.5005 13.7861 36.6812C11.7934 34.5999 9.73798 34.8585 8.798 35.1372C10.5877 34.3589 13.0091 33.9472 14.2824 33.774C14.0067 34.1229 13.8488 34.5598 13.8488 35.0242C13.8488 36.1389 14.7536 37.0452 15.8666 37.0452C16.2049 37.0452 16.5383 36.9598 16.8316 36.7992C17.185 37.4268 17.8493 37.826 18.5887 37.826C19.7016 37.826 20.6065 36.9197 20.6065 35.805C20.6065 35.7272 20.6015 35.6518 20.594 35.574C21.5991 35.4585 22.3812 34.6024 22.3812 33.5656C22.3812 32.5488 21.6267 31.7053 20.6516 31.5647C20.6642 31.4718 20.6717 31.3814 20.6717 31.2886C20.6717 30.1739 19.7668 29.2676 18.6539 29.2676C17.9696 29.2676 17.3479 29.609 16.977 30.1638C16.6511 29.9479 16.2676 29.8299 15.8666 29.8299C14.7536 29.8299 13.8488 30.7362 13.8488 31.8509C13.8488 32.461 14.1195 33.0208 14.5707 33.3974C12.9915 33.4401 10.901 33.9346 9.29432 34.3865C9.42716 34.1957 9.56001 34.0049 9.69787 33.8167L10.2192 33.0685C10.3997 32.825 10.5902 32.5865 10.7732 32.3455L11.8911 30.9044L13.0767 29.5186C13.2773 29.2902 13.4653 29.0517 13.6758 28.8307L14.3025 28.168C15.9443 26.3704 17.7665 24.7461 19.644 23.1971L21.4462 21.7912L21.4537 21.7862L21.4713 21.7937C22.3636 22.1954 23.2108 22.69 24.0255 23.2298C30.8509 27.7437 37.5259 23.7997 38.4759 22.9411C40.2731 21.3193 44.2836 21.7611 44.2836 21.7611C35.9743 18.166 35.1923 20.5962 29.6001 21.3419C26.3716 21.7737 23.662 21.6306 21.9475 21.4322L22.5667 20.9979C23.5492 20.2749 24.597 19.6472 25.6297 18.997C25.8854 18.8288 26.1511 18.6807 26.4193 18.5326L27.2188 18.0857C27.7553 17.7945 28.2766 17.4731 28.8306 17.2145L30.4749 16.4036L30.886 16.2003L31.3071 16.017L32.1468 15.6505L32.989 15.284C33.2697 15.1609 33.558 15.063 33.8437 14.9501C33.9089 14.925 33.9741 14.8998 34.0368 14.8747C36.3278 14.7166 43.2409 14.4856 47.8104 16.9183C47.6951 17.4104 47.8305 17.9501 48.2165 18.3317C48.808 18.9142 49.7555 18.9041 50.337 18.3142C50.9186 17.7242 50.9085 16.7727 50.3195 16.1903C49.7304 15.6103 48.7804 15.6179 48.1989 16.2078C48.1162 16.2907 48.0485 16.3811 47.9909 16.4765C46.0458 15.3969 42.0428 13.6044 37.185 13.7626L37.3028 13.7249C37.5911 13.6245 37.8843 13.5366 38.1801 13.4588L39.0649 13.2103C41.4236 12.56 43.8274 12.0429 46.2613 11.7366C48.1789 11.4906 50.1089 11.3223 52.0465 11.2746L52.3473 11.7466C52.8737 12.5726 53.3098 13.4513 53.6958 14.3525C56.9293 21.8766 64.6696 22.2481 65.9355 22.0548C68.3267 21.6858 71.4374 24.2616 71.4374 24.2616C66.4593 16.6898 64.4766 18.2916 59.3908 15.8413C56.0345 14.2245 53.6557 12.3542 52.425 11.2671C52.8185 11.2621 53.2121 11.2571 53.6056 11.2621C56.0621 11.2847 58.5185 11.4629 60.9574 11.7993C63.3913 12.1634 65.8051 12.6805 68.1789 13.3534C70.0763 13.8806 71.9362 14.5484 73.761 15.2965C74.0342 15.7258 74.4202 16.9183 73.6181 19.9159C72.5102 24.0607 74.701 26.0265 74.701 26.0265C74.701 26.0265 73.375 24.7838 75.0619 21.259C76.3077 18.6581 75.3427 16.8229 74.7511 16.0396C76.1072 17.443 77.3429 19.5694 77.952 20.7017C77.5309 20.5661 77.0672 20.5711 76.631 20.7343C75.5883 21.1259 75.0594 22.2933 75.4504 23.3352C75.5708 23.654 75.7663 23.9352 76.0219 24.1536C75.5607 24.7034 75.4179 25.4692 75.6785 26.1621C76.0696 27.2064 77.2351 27.7362 78.2754 27.3445C78.348 27.3169 78.4182 27.2868 78.4859 27.2516C78.9446 28.1529 80.0224 28.5872 80.99 28.2232C81.94 27.8667 82.4638 26.8625 82.2508 25.8985C82.341 25.8784 82.4288 25.8508 82.5165 25.8206C83.5592 25.429 84.0881 24.2616 83.6971 23.2197C83.4565 22.5795 82.9175 22.1151 82.2708 21.9619C82.3586 21.5803 82.3335 21.1787 82.1931 20.8046C81.8021 19.7602 80.6366 19.2305 79.5963 19.6221C79.0248 19.8355 78.5987 20.2874 78.4057 20.8423C77.7013 19.1025 76.0946 17.079 75.0068 15.8237C75.0494 15.8413 75.092 15.8589 75.1346 15.8789C75.6961 16.1375 76.2701 16.366 76.819 16.6522L78.4784 17.4807C79.5612 18.0782 80.6516 18.6631 81.6968 19.3259C83.7999 20.6289 85.8402 22.0473 87.7427 23.6415C88.9083 24.6106 90.0362 25.6273 91.1266 26.6842C92.0114 27.8516 93.2722 29.7546 94.345 32.2777C96.2174 36.6812 94.7887 38.3004 100.992 42.8094C100.992 42.8094 98.9371 40.0754 99.3406 38.0619C99.5537 36.9975 99.5387 30.4249 93.3073 27.3947C92.5603 27.0332 91.8359 26.629 91.1567 26.152L90.5501 25.7252C89.7204 24.9093 88.8657 24.116 87.9909 23.3503C86.1235 21.7034 84.1132 20.2272 82.0327 18.8589C85.5194 19.3585 89.8708 20.3703 93.0291 22.4917C92.8361 23.054 92.9288 23.7017 93.3374 24.1938C93.959 24.9445 95.0694 25.0499 95.8214 24.4273C96.5709 23.8047 96.6762 22.6925 96.0545 21.9394C95.4329 21.1887 94.3225 21.0833 93.5705 21.7059C93.4652 21.7937 93.3725 21.8917 93.2948 21.9946C91.1667 20.5134 86.0006 18.1208 80.1954 17.7217C79.7317 17.448 79.268 17.1769 78.8042 16.9058L77.1449 16.0246C76.5959 15.7208 76.0194 15.4748 75.458 15.1986C73.1895 14.1392 70.8584 13.1902 68.4596 12.4571C67.9508 12.2989 67.4394 12.1508 66.9281 12.0077C68.2691 11.4604 70.52 10.6947 73.37 10.3156C78.1074 9.68548 79.283 11.4981 85.2812 6.71553C85.2812 6.71553 82.1004 7.96828 80.2731 7.0419C79.3056 6.55235 72.979 4.81004 68.3969 10.0144C67.848 10.637 67.2665 11.2295 66.6248 11.7567L66.4719 11.8822C64.7148 11.4027 62.9376 11.001 61.1404 10.6872C59.3306 10.3884 57.5033 10.1801 55.671 10.052C57.2452 9.50473 59.2404 8.71893 60.5589 7.85029C60.4035 8.41767 60.4987 9.03275 60.8471 9.53234C61.4813 10.4487 62.7421 10.6746 63.6545 10.0395C63.9828 9.81101 64.231 9.4972 64.3764 9.13066C64.9955 9.37418 65.7024 9.29886 66.2638 8.90722C67.1762 8.27206 67.4043 7.00926 66.7702 6.09543C66.7175 6.02012 66.6599 5.94731 66.5972 5.87953C67.3191 5.20671 67.457 4.08199 66.8779 3.2485C66.2864 2.39743 65.1559 2.14136 64.2661 2.62087C64.231 2.55308 64.1909 2.48781 64.1458 2.42505C63.5116 1.51121 62.2508 1.28276 61.3384 1.91792C60.7318 2.33969 60.4135 3.05017 60.4812 3.76567C60.1478 3.80081 59.8244 3.92132 59.5462 4.11463C58.6338 4.74979 58.4057 6.01259 59.0399 6.92642C59.3056 7.30802 59.6841 7.57664 60.1077 7.70719C58.9622 8.29214 56.7413 9.33652 54.8263 9.72063C55.7563 9.41184 57.5911 8.4503 58.0423 5.60337C58.6539 1.74469 60.4486 1.47607 60.4486 1.47607C60.4486 1.47607 57.5334 1.84762 56.0921 5.88706C54.884 9.27125 53.5279 9.83863 53.1294 9.92901C50.7782 9.86875 48.422 9.99428 46.0784 10.2328C43.5668 10.4838 41.0777 10.9508 38.6263 11.5608L37.7064 11.7943C37.3981 11.8696 37.0948 11.95 36.794 12.0479L36.1548 12.2412C37.5008 11.1567 39.5537 9.70808 42.2257 8.42018C47.3116 5.96991 49.2943 7.57162 54.2724 -0.00012207C54.2724 -0.00012207 51.1617 2.57568 48.7704 2.20663C47.5046 2.01081 39.7668 2.38237 36.5308 9.90892C36.1448 10.8102 35.7086 11.6889 35.1823 12.5148L35.1672 12.54L34.9792 12.5977C34.3776 12.7935 33.7861 13.0144 33.187 13.2203C32.8887 13.3283 32.5879 13.4237 32.2947 13.5416L30.0939 14.4329L29.6628 14.6312L27.9382 15.4271C27.3567 15.6781 26.8078 15.9995 26.2438 16.2857L25.4016 16.7275C25.1208 16.8731 24.8401 17.0212 24.5694 17.1869C24.0505 17.4957 23.5292 17.7995 23.0128 18.1108C25.9956 14.2672 27.4444 10.2428 28.0886 7.92058C28.2365 7.95573 28.3894 7.97331 28.5473 7.97331C29.6678 7.97331 30.5777 7.06198 30.5777 5.93978C30.5777 4.81758 29.6678 3.90625 28.5473 3.90625C27.4269 3.90625 26.517 4.81758 26.517 5.93978C26.517 6.67536 26.908 7.31806 27.4921 7.67455C25.6723 13.8178 19.8545 19.7452 17.0822 22.3059C15.4856 23.6013 13.939 24.9595 12.5102 26.4432L11.836 27.1211C11.6104 27.347 11.4049 27.5905 11.1893 27.824L9.90842 29.245L8.69775 30.7237C8.49722 30.9722 8.29168 31.2157 8.09616 31.4668L7.52717 32.2375C7.50712 32.2651 7.48706 32.2928 7.4645 32.3204C8.01344 30.1613 8.89827 27.4223 10.3145 24.4398C13.6131 17.4932 17.0798 17.4932 15.8966 5.21173C15.8966 5.21173 14.7988 10.5993 11.9488 12.2588C10.4398 13.1349 2.55914 20.1519 5.54948 30.8919C5.83775 31.9237 6.07336 32.9656 6.23629 34.0225C5.20859 35.5213 4.26611 37.0828 3.36875 38.667L2.46638 40.3591C2.1681 40.924 1.91244 41.5114 1.6342 42.0863L1.22564 42.955C1.09029 43.2437 0.977478 43.5449 0.85215 43.8387L0.117722 45.6136C0.112709 45.6236 0.107704 45.6387 0.102684 45.6488C-0.200607 46.4396 0.190414 47.3283 0.979988 47.6321C1.77959 47.9358 2.66692 47.5417 2.97021 46.7509ZM16.0295 33.4376L15.3377 33.1539C14.8063 32.9355 14.4654 32.4258 14.4654 31.8509C14.4654 31.0752 15.0945 30.445 15.8691 30.445C16.2425 30.445 16.5935 30.5906 16.8592 30.8542L17.1825 31.1756L17.358 30.7513C17.576 30.2216 18.0849 29.8801 18.6564 29.8801C19.4309 29.8801 20.0601 30.5103 20.0601 31.286C20.0601 31.4417 20.0325 31.5999 19.9799 31.753L19.827 32.1873L20.3182 32.1597C20.3333 32.1597 20.3508 32.1572 20.3659 32.1572C21.1404 32.1572 21.7696 32.7873 21.7696 33.5631C21.7696 34.3388 21.1404 34.969 20.3659 34.969C20.3258 34.969 20.2832 34.9665 20.243 34.964L19.7818 34.9238L19.9247 35.3656C19.9698 35.5087 19.9949 35.6544 19.9949 35.8025C19.9949 36.5782 19.3657 37.2084 18.5912 37.2084C17.9821 37.2084 17.4457 36.8192 17.2577 36.2393L17.1173 35.8075L16.7714 36.0987C16.5183 36.3096 16.1999 36.4276 15.8716 36.4276C15.097 36.4276 14.4679 35.7975 14.4679 35.0217C14.4679 34.4493 14.8113 33.9372 15.3402 33.7187L16.0295 33.4376ZM79.8194 20.2121C80.5438 19.9385 81.3559 20.3075 81.6292 21.0356C81.7595 21.3845 81.747 21.7661 81.5941 22.1076L81.4061 22.5243L81.8623 22.5394C82.4338 22.5569 82.9326 22.9159 83.1306 23.4507C83.4038 24.1762 83.0354 24.9896 82.3084 25.2633C82.1631 25.3185 82.0051 25.3486 81.8447 25.3512L81.386 25.3612L81.584 25.8131C81.5916 25.8282 81.5966 25.8432 81.6041 25.8583C81.8748 26.5838 81.5063 27.3972 80.7819 27.6709C80.0575 27.9445 79.2454 27.5755 78.9747 26.8474C78.9597 26.8098 78.9496 26.7696 78.9371 26.7319L78.8118 26.2851L78.4483 26.5763C78.3305 26.6692 78.2027 26.7445 78.0648 26.7947C77.3404 27.0684 76.5283 26.6993 76.2551 25.9713C76.042 25.4014 76.2175 24.7612 76.6912 24.3796L77.0446 24.0959L76.6511 23.8725C76.3653 23.7093 76.1448 23.4507 76.0295 23.1444C75.7562 22.4189 76.1247 21.6055 76.8516 21.3318C77.388 21.131 77.9846 21.2716 78.3756 21.6933L78.8845 22.2431L78.907 21.495C78.9246 20.9151 79.283 20.413 79.8194 20.2121ZM61.3259 7.60928L61.7319 6.97914L61 7.14232C60.4411 7.26785 59.867 7.0419 59.5412 6.57243C59.1 5.93476 59.2579 5.05608 59.8921 4.61422C60.1628 4.42593 60.4912 4.33807 60.8195 4.36819L61.2707 4.40836L61.1404 3.97404C60.9649 3.38909 61.1855 2.76397 61.6843 2.41751C62.321 1.97566 63.1983 2.13382 63.6394 2.76899C63.7247 2.88949 63.7873 3.02506 63.8299 3.16816L63.9628 3.61252L64.3187 3.31377C64.3488 3.28867 64.3814 3.26356 64.4165 3.23846C65.0532 2.7966 65.9305 2.95477 66.3716 3.58993C66.8128 4.2276 66.6549 5.10629 66.0207 5.54814C66.0082 5.55818 65.9931 5.56571 65.9806 5.57324L65.562 5.83183L65.933 6.10045C66.0633 6.19585 66.1761 6.30883 66.2638 6.43686C66.705 7.07454 66.5471 7.95322 65.9129 8.39507C65.4442 8.72144 64.8301 8.73148 64.3513 8.42269L63.9678 8.17415L63.8851 8.62353C63.8174 8.99007 63.6119 9.31142 63.3061 9.52481C62.6694 9.96666 61.7921 9.8085 61.3509 9.17334C61.0251 8.70638 61.0151 8.0913 61.3259 7.60928Z" fill="#800505"/>
</g>
</svg>
