<svg width="96" height="138" viewBox="0 0 96 138" fill="none" xmlns="http://www.w3.org/2000/svg">
<g opacity="0.2">
<path d="M69.9059 129.94C67.4072 126.764 63.8276 124.391 61.032 121.454C58.0899 118.363 55.1008 115.006 52.7962 111.409C48.7215 105.054 46.9485 97.2974 46.5603 89.8336C46.1482 81.8372 47.7449 74.3 49.4171 66.5427C51.0984 58.7608 51.2877 50.8858 50.4084 42.9706C49.4368 34.2245 46.9997 26.2059 41.6802 19.1252C41.4175 18.772 40.4309 19.8405 40.7626 20.2861C50.8564 33.7196 51.5427 52.9165 47.973 68.7857C44.8189 82.785 43.4955 98.3928 51.1004 111.332C53.2313 114.955 56.1069 118.189 58.9109 121.307C60.4132 122.976 62.0117 124.557 63.6515 126.087C65.4352 127.748 67.475 129.175 68.9884 131.101C69.2684 131.452 70.2479 130.373 69.9059 129.94Z" fill="#800505"/>
<path d="M69.7037 128.803C65.1676 122.742 65.1272 114.863 66.6278 107.783C67.322 104.506 68.0013 101.201 68.9853 97.9909C70.0814 94.4157 71.7874 91.0905 73.0798 87.5876C75.3316 81.5014 77.1 75.616 77.9715 69.1713C78.3901 66.0597 78.4513 62.9583 78.1562 59.826C77.9238 57.3633 77.9223 53.8571 76.8013 51.5989C76.5522 51.103 75.5456 52.1503 75.7657 52.5965C76.3872 53.8511 76.4066 55.6139 76.6119 56.9854C76.8824 58.785 77.1128 60.5949 77.2149 62.4133C77.4106 65.9214 77.0068 69.3785 76.4985 72.8471C75.4309 80.0667 72.5177 87.0794 69.6484 93.7461C67.1204 99.6218 65.6159 106.349 64.7845 112.677C64.0123 118.534 65.2149 125.178 68.792 129.964C69.0488 130.317 70.0355 129.249 69.7037 128.803Z" fill="#800505"/>
<path d="M68.3146 128.899C68.3876 129.026 68.4605 129.153 68.5276 129.281C68.8522 128.921 69.1767 128.562 69.5013 128.202C68.3004 127.659 67.1265 125.348 66.3592 124.315C65.0872 122.603 63.7333 120.948 62.8911 118.976C61.0763 114.707 60.0591 110.207 59.3755 105.642C58.759 101.521 58.1799 97.4203 57.7029 93.2845C57.2426 89.2999 57.1591 85.2145 56.5491 81.2582C55.3194 73.3114 50.7478 66.2418 46.3433 59.7242C44.0988 56.4025 41.78 53.0479 39.2697 49.9263C37.9261 48.2577 36.4044 46.9442 34.7292 45.6242C32.77 44.0769 31.1928 42.2107 29.3491 40.5388C28.9825 40.203 28.0391 41.3432 28.4315 41.6997C30.1577 43.267 31.6201 45.0518 33.4515 46.5074C35.121 47.828 36.7014 49.0879 38.0662 50.7366C41.0561 54.3638 43.764 58.3635 46.346 62.289C51.0635 69.4542 55.0944 76.7368 55.7556 85.441C56.3755 93.6144 57.3677 101.858 58.8568 109.917C59.5469 113.641 60.5821 117.721 62.3652 121.07C63.1377 122.52 64.2045 123.813 65.1796 125.129C66.1128 126.384 67.117 128.702 68.5831 129.357C69.0103 129.551 69.7975 128.699 69.5568 128.278C69.4839 128.151 69.411 128.024 69.3438 127.896C69.078 127.408 68.0791 128.472 68.3146 128.899Z" fill="#800505"/>
<path d="M67.8087 130.373C68.0016 130.628 68.1881 130.878 68.3811 131.133C68.685 130.746 68.9889 130.36 69.2986 129.972C68.5462 129.232 67.415 129.052 66.4793 128.567C65.1822 127.9 63.9206 127.181 62.5983 126.551C59.928 125.271 57.1874 124.099 54.6571 122.545C49.5707 119.415 44.8062 114.473 41.8221 109.31C39.0774 104.555 37.1174 99.5603 33.7591 95.1563C31.9695 92.8077 29.9316 90.8162 27.6755 88.9253C25.9964 87.5175 24.0101 85.7791 21.816 85.2934C21.334 85.1881 20.5468 86.4109 21.0895 86.533C23.5907 87.0847 25.8984 89.3346 27.7834 90.9548C30.1885 93.0232 32.2807 95.3441 34.067 97.9813C37.1905 102.6 38.9776 107.996 42.2185 112.507C45.3265 116.827 49.2068 120.903 53.7518 123.71C56.2769 125.271 59.0227 126.437 61.693 127.717C62.8791 128.285 64.0465 128.897 65.2042 129.527C66.0554 129.991 67.6938 130.45 68.3933 131.138C68.7625 131.497 69.6142 130.378 69.3109 129.977C69.1179 129.722 68.9314 129.472 68.7385 129.217C68.4578 128.86 67.4712 129.928 67.8087 130.373Z" fill="#800505"/>
<path d="M41.5669 19.2676C40.7996 19.8764 38.3009 17.0712 37.8389 16.6695C37.6646 16.5301 37.4949 16.3783 37.331 16.2259C37.0748 15.8249 36.7153 15.8178 36.2359 16.2122C36.2449 16.2407 36.7109 16.4654 36.7425 16.4854C37.1974 16.7702 37.5711 17.1699 38.0215 17.467C38.6752 17.9003 39.296 17.9314 39.7115 17.1204C39.8948 16.7588 39.867 16.456 39.7715 16.0724C39.7173 15.849 39.605 15.6321 39.5282 15.417C39.4352 15.1626 39.3984 14.4607 39.1242 14.8501C38.9035 14.9805 38.6886 15.1102 38.4679 15.2407C39.3152 15.5642 39.6386 16.7285 39.8845 17.513C40.2136 18.5707 40.7157 19.5445 41.0501 20.5957C41.3746 20.2361 41.6992 19.8765 42.0238 19.5168C40.9938 18.8194 40.2136 17.3 39.4682 16.3062C39.2056 15.9529 38.219 17.0215 38.5507 17.4671C38.7307 17.7118 38.9166 17.9559 39.0966 18.2006C39.3593 18.5539 40.3459 17.4853 40.0142 17.0397C39.8341 16.795 39.6483 16.5509 39.4682 16.3062C39.2056 15.9529 38.219 17.0215 38.5507 17.4671C39.318 18.4996 40.0195 19.9454 41.1062 20.6777C41.5579 20.9864 42.2045 19.9792 42.0799 19.5989C41.6907 18.3713 41.1789 17.1516 40.7272 15.9427C40.4264 15.1408 40.0295 14.32 39.1945 14.001C38.9854 13.9183 38.6402 14.2508 38.5382 14.3916C38.224 14.8442 38.1343 15.2012 38.2479 15.7475C38.3067 16.0116 38.4299 16.5392 38.6126 16.7542C38.6539 16.8614 38.6887 16.9634 38.7242 17.0713C38.9468 16.9053 39.1759 16.7446 39.3985 16.5786C39.3888 16.5444 39.1275 16.4676 39.0875 16.4249C38.5377 15.8153 37.1354 14.5709 36.3049 15.1927C34.8337 16.2915 36.6767 17.587 37.4653 18.3348C38.3262 19.151 40.2377 21.3272 41.594 20.2529C42.0212 19.9172 42.318 18.6723 41.5669 19.2676Z" fill="#800505"/>
<path d="M30.0604 41.8071C29.6648 41.9511 29.1227 41.623 28.7601 41.4809C27.9483 41.1593 27.1958 40.7899 26.477 40.2991C25.6813 39.7521 24.3435 38.8241 24.0931 37.84C23.924 38.1706 23.7608 38.5005 23.5918 38.8311C24.4009 38.3353 25.207 39.8224 25.9588 39.8684C26.3259 39.8923 26.6963 39.4687 26.8021 39.1511C26.9615 38.6803 26.8898 38.4589 26.7963 37.9868C26.7375 37.7757 26.7014 37.5562 26.6827 37.3347C26.5104 37.4774 26.3387 37.6259 26.1606 37.7692C26.1561 37.8344 26.6259 38.2529 26.6943 38.3394C27.1583 38.9173 27.5397 39.5456 27.8611 40.2159C28.2212 40.9701 28.7407 41.942 28.9595 42.7472C29.2841 42.3876 29.6087 42.0279 29.9332 41.6683C29.3512 41.3506 28.8988 40.8243 28.3399 40.451C27.7811 40.0777 27.1693 39.7574 26.6363 39.3519C26.2252 39.0386 25.3186 40.1924 25.7187 40.5127C26.3634 41.0236 27.1468 41.4601 27.7811 40.7131C28.5819 39.7711 27.6339 38.7527 27.4403 37.8035C27.095 38.136 26.7498 38.4685 26.4046 38.801C26.7331 39.3234 26.8964 39.8936 27.1629 40.4406C27.4152 40.9655 28.3412 39.8802 28.1986 39.443C27.9675 38.7392 27.801 38.0341 27.6499 37.3096C27.2944 37.6021 26.9453 37.8997 26.5898 38.1922C26.6111 38.2251 26.6324 38.258 26.6472 38.2858C26.9544 38.7753 27.9397 37.6951 27.6829 37.2883C27.6616 37.2553 27.6403 37.2224 27.6254 37.1946C27.3118 36.7 26.4897 37.715 26.5652 38.0772C26.7247 38.8773 26.9054 39.6573 27.1565 40.4354C27.5017 40.1029 27.8469 39.7704 28.1921 39.4379C27.932 38.8961 27.7687 38.3259 27.4403 37.8035C27.0969 37.2534 26.3194 38.4046 26.4046 38.801C26.4795 39.1575 27.1906 40.2139 27.0139 40.5807C27.2578 40.3418 27.5023 40.1087 27.7462 39.8698C27.3474 39.9847 26.9267 39.5843 26.6369 39.3577C26.333 39.7444 26.0291 40.1312 25.7194 40.5186C26.2524 40.9241 26.8584 41.2451 27.423 41.6177C27.9812 41.9852 28.4401 42.5166 29.0163 42.835C29.4984 43.0991 30.1062 42.1668 29.99 41.7561C29.8132 41.1169 29.4415 40.5228 29.1904 39.9035C28.8761 39.1383 28.4966 38.4216 28.0223 37.7506C27.75 37.3632 27.3647 36.6471 26.8852 36.5121C26.3871 36.3674 25.9786 36.7657 25.7618 37.1958C25.6076 37.5012 25.5805 37.7866 25.5941 38.1204C25.6089 38.4129 25.9161 39.1142 25.8368 39.3524C26.1162 39.1155 26.4014 38.8779 26.6801 38.6351C26.0761 38.5963 25.6231 37.8524 25.0255 37.66C24.4215 37.4623 24.0711 37.5365 23.5485 37.8593C23.251 38.0395 22.96 38.4895 23.0471 38.8505C23.364 40.1154 25.1677 41.2682 26.1815 41.8733C27.1385 42.4435 28.6821 43.3722 29.8126 42.9642C30.2695 42.7899 30.8405 41.5263 30.0604 41.8071Z" fill="#800505"/>
<path d="M22.539 85.772C21.2646 86.5784 18.7298 86.4658 17.5063 85.6133C17.2262 85.4209 17.0074 85.0393 16.7041 84.9023C16.4196 84.7751 15.5775 84.7628 16.6177 84.8119C17.3269 84.8449 17.8592 85.1917 18.5058 85.4023C18.9143 85.5334 19.3176 84.8238 19.397 84.5326C19.6615 83.5796 18.6857 82.6819 18.4857 81.7805C18.4476 81.9671 18.4102 82.1595 18.3663 82.3468C18.3953 82.2906 18.4308 82.2396 18.4599 82.1834C18.245 82.3662 18.0243 82.5495 17.8094 82.7322C18.2999 82.5954 19.3827 84.14 19.6209 84.4312C20.1791 85.1164 20.9006 85.8422 21.2658 86.6429C21.5594 86.2691 21.853 85.8953 22.1466 85.5214C21.3406 85.5168 20.6102 85.2391 19.8209 85.1209C18.8278 84.9665 18.0005 84.7701 17.2745 84.0036C17.0016 84.4045 16.7287 84.8055 16.4499 85.2071C17.143 85.2007 17.8283 85.2834 18.4833 85.5166C18.6904 85.1053 18.8917 84.6946 19.0982 84.2775C18.6878 84.3408 18.2748 84.3278 17.8915 84.1586C17.7915 84.4756 17.6914 84.7927 17.5921 85.1155C18.0412 84.6597 19.3241 85.1467 19.8655 85.2571C20.2746 85.3411 20.9592 84.5179 20.7463 84.1356C20.5623 83.8031 20.3436 83.5273 20.1048 83.2303C19.8183 82.8738 18.8684 83.9559 19.1872 84.3912C19.3453 84.5972 19.4983 84.8096 19.6564 85.0156C19.919 85.3688 20.9056 84.3003 20.5739 83.8547C20.4158 83.6487 20.2629 83.4363 20.1048 83.2303C19.8009 83.617 19.4969 84.0038 19.1872 84.3912C19.3834 84.6223 19.5577 84.8677 19.7106 85.1331C20.0042 84.7593 20.2978 84.3855 20.592 84.0174C19.4131 83.7778 18.2192 83.4044 17.2733 84.3626C17.1784 84.4614 16.6332 85.1632 16.9739 85.3195C17.5063 85.5604 18.0219 85.5972 18.6007 85.5153C18.9537 85.4643 19.7848 84.4778 19.2156 84.2762C18.5606 84.0431 17.8695 83.961 17.1823 83.9668C16.777 83.9706 15.9704 84.7544 16.3576 85.1703C17.0365 85.8832 17.8161 86.179 18.7621 86.3328C19.6423 86.4762 20.5205 86.761 21.4149 86.7676C21.8331 86.7741 22.4983 86.0942 22.2963 85.6519C21.851 84.66 20.943 83.7372 20.2351 82.9216C19.8369 82.4599 19.1045 81.3705 18.3766 81.4867C17.9087 81.5622 17.4042 82.2066 17.4152 82.676C17.4248 82.975 17.6759 83.3295 17.783 83.6059C17.9205 83.9436 18.4213 84.6939 18.3251 85.0458C18.622 84.754 18.9194 84.468 19.2163 84.1762C18.1612 83.8345 17.0712 83.179 15.9904 83.8756C15.4361 84.2313 14.787 85.1094 15.2703 85.7558C15.4084 85.9405 15.8569 86.1672 16.0318 86.3125C16.3171 86.5514 16.5436 86.791 16.8707 86.9841C17.3863 87.2857 17.9845 87.431 18.5782 87.4828C19.9198 87.5985 21.402 87.4985 22.55 86.7709C23.0443 86.4571 23.3514 85.2523 22.539 85.772Z" fill="#800505"/>
<path d="M77.5732 53.3608C76.802 52.3463 75.9702 51.368 75.248 50.3186C74.8002 49.6742 73.5792 48.1037 73.825 47.2469C73.6082 47.5181 73.392 47.7951 73.1752 48.0662C73.8754 47.7002 75.0319 50.225 75.1784 50.697C75.3275 51.1923 76.3366 50.1683 76.214 49.6995C76.1114 49.305 76.0604 48.8988 76.0333 48.4959C76.0197 48.3209 75.8642 47.7675 76.0649 47.9864C76.4192 48.3707 76.3947 49.3147 76.396 49.8028C76.4083 51.0252 76.1483 52.2307 76.1665 53.4523C76.5014 53.1328 76.8356 52.8073 77.1647 52.4884C76.5432 51.6573 76.2947 50.2671 76.598 49.345C76.8038 48.7103 76.8302 48.2603 76.6269 47.5945C76.443 46.9972 75.5854 48.2221 75.5667 48.4771C75.5383 48.8038 75.5525 48.8258 75.6461 49.139C75.7939 49.6226 76.8302 48.6309 76.6818 48.1415C76.6715 47.9955 76.656 47.8561 76.6456 47.7101C76.2901 48.0026 75.941 48.3002 75.5854 48.5927C75.8423 49.4231 75.2416 49.8899 75.2887 50.7377C75.3378 51.6559 75.7018 52.9215 76.2413 53.6499C76.5524 54.0684 77.2434 52.9327 77.2395 52.686C77.2234 51.4817 78.2995 46.8793 76.5262 46.3173C75.8744 46.1132 75.3201 46.8925 75.0885 47.4007C74.6414 48.4034 74.9002 49.6748 75.1616 50.7048C75.5068 50.3723 75.852 50.0398 76.1972 49.7073C75.8539 48.5747 73.8752 45.3175 72.7938 47.5968C72.3415 48.553 73.1521 49.6573 73.6219 50.4464C74.4893 51.9031 75.6192 53.1837 76.6382 54.5236C76.9241 54.8743 77.9101 53.7999 77.5732 53.3608Z" fill="#800505"/>
<path d="M77.3636 53.3252C74.4346 54.0036 69.6521 48.4223 68.3943 46.2559C67.9509 45.4932 67.5811 44.6518 67.4823 43.7627C67.3771 42.9743 67.4913 42.2027 67.8249 41.4479C68.483 40.9159 69.1406 40.3781 69.7987 39.8461C70.8357 39.7603 71.4656 41.1964 72.4013 41.416C72.7995 41.5071 73.2344 40.8705 73.2924 40.5463C73.4892 39.4596 73.9247 38.2464 75.2405 39.1356C75.4502 39.2771 75.7729 40.0649 76.1182 40.2089C77.1745 40.6681 77.7294 39.6298 78.9097 40.5694C80.6773 41.9792 80.0192 45.2645 79.698 47.1357C79.5212 48.1908 79.3354 49.2704 79.0683 50.306C79.1632 49.9425 78.1954 53.2975 78.0844 53.1981C77.7295 52.861 76.7848 53.9896 77.1668 54.359C77.2591 54.4487 77.3508 54.5327 77.443 54.6224C77.5289 54.707 77.6928 54.6476 77.7831 54.6141C79.659 53.8762 79.9479 50.5496 80.3124 48.9089C80.8788 46.3338 82.1408 41.8695 80.0319 39.6094C79.2239 38.7402 78.7748 38.9842 77.8462 38.8285C76.9415 38.676 76.7518 38.45 76.1523 37.9754C75.7457 37.6499 75.4024 37.2056 74.841 37.1268C72.7992 36.8477 72.4651 39.7146 72.2245 41.0415C72.5213 40.7497 72.8188 40.4636 73.1156 40.1718C72.2102 39.9606 71.7359 38.919 70.775 38.6845C69.9832 38.4901 69.4025 38.6605 68.7385 39.0873C67.2473 40.0589 66.3678 42.1451 66.3434 43.8833C66.3035 46.594 68.3376 48.8154 70.1239 50.6055C71.6385 52.1198 74.4231 55.1168 76.8474 54.5533C77.3185 54.4539 77.9941 53.1787 77.3636 53.3252Z" fill="#800505"/>
<path d="M41.7855 22.0787C41.8081 22.1232 41.8249 22.1684 41.8475 22.213C41.9682 21.9231 42.0888 21.6332 42.2088 21.3374C40.0517 23.2479 34.3445 18.7636 32.777 17.3552C31.7322 16.4181 30.7513 15.3681 29.8452 14.3039C29.5987 13.9901 29.3464 13.6769 29.0998 13.3631C28.168 12.1194 28.7945 10.9849 30.9859 9.9649C31.8803 10.0773 32.6205 10.9188 33.0942 11.5839C33.4626 12.096 34.2466 11.0028 34.1298 10.5864C33.7264 9.12509 33.5263 7.90598 35.1183 8.0527C35.57 8.09665 35.8133 8.38142 36.3185 8.2194C37.682 7.79142 37.8355 5.20345 39.4314 6.86758C41.2067 8.71769 42.2335 11.0804 42.8131 13.5458C43.5366 16.6188 42.7637 19.0285 42.3192 22.0135C42.6677 21.763 43.0167 21.5183 43.3652 21.2678C43.2994 21.0986 43.2271 20.9243 43.1613 20.7551C43.0941 20.0978 42.0307 21.0572 42.0772 21.5286C42.1185 21.9534 42.0901 21.9095 42.3237 22.266C42.6419 22.7484 43.3272 21.8251 43.3697 21.5203C43.622 19.8215 44.2775 18.2602 44.2903 16.5233C44.3051 14.6449 43.9952 12.8614 43.4157 11.0844C42.878 9.42037 40.9535 4.48054 38.5924 4.76637C37.8961 4.84961 37.6696 5.45719 37.2599 5.89688C37.0747 6.45282 36.6643 6.7808 36.0352 6.88599C35.7641 6.72196 35.4821 6.56502 35.1963 6.42617C34.6987 6.39319 34.691 6.21756 34.1877 6.39702C32.2408 7.07806 32.6979 10.1336 33.0935 11.5781C33.4387 11.2456 33.7839 10.913 34.1292 10.5805C32.7785 8.68915 31.0368 8.14724 29.15 9.63348C27.5659 10.8802 26.9536 12.5661 28.0577 14.3554C29.835 17.229 32.8977 19.6067 35.7894 21.2387C37.8338 22.3883 40.4983 23.8807 42.5218 22.091C42.7148 21.9225 43.0142 21.4951 42.8832 21.2155C42.8606 21.1709 42.8438 21.1257 42.8212 21.0812C42.5902 20.5891 41.5706 21.626 41.7855 22.0787Z" fill="#800505"/>
<path d="M31.3186 43.5559C30.5365 44.8783 25.7303 43.2119 24.7365 42.8399C22.7857 42.1094 21.0104 41.0006 19.4159 39.6657C18.2356 38.6732 17.0088 37.527 16.3899 36.0837C15.8432 34.8149 15.4546 31.74 18.4598 32.4886C18.9735 32.614 19.5078 33.137 20.0195 33.3508C20.3835 33.5045 20.8765 32.7555 20.9106 32.4811C21.0751 31.3156 20.404 30.5666 21.9559 30.5118C22.4715 30.4957 22.8929 30.6901 23.3859 30.4706C23.8447 30.2608 23.9208 29.9405 24.2286 29.6416C24.8507 29.0489 24.0305 28.9694 25.0778 28.8707C25.776 28.8049 26.0503 29.2098 26.482 29.709C28.1754 31.6682 29.2196 34.8232 30.0541 37.2544C30.8105 39.4589 31.0307 41.8642 31.7845 44.0454C32.1297 43.7129 32.4749 43.3804 32.8201 43.0479C32.7988 43.015 32.7782 42.9878 32.7569 42.9549C32.4213 42.4745 31.4489 43.565 31.7212 43.9524C31.7425 43.9854 31.7632 44.0125 31.7845 44.0454C32.1343 44.5478 32.9673 43.4728 32.8201 43.0479C31.7165 39.8348 31.2369 36.5758 29.879 33.4027C29.1646 31.7348 27.8899 27.1934 25.3616 27.2978C24.5834 27.3313 24.2956 27.7575 23.8859 28.303C23.6659 28.5981 23.5743 29.2025 23.2516 29.3677C23.0516 29.4723 22.1643 29.212 21.9713 29.2217C19.2217 29.3448 20.1227 31.1038 19.8608 32.9802C20.1576 32.6883 20.4551 32.4023 20.7519 32.1105C19.58 31.617 18.6281 30.5638 17.2614 31.0686C16.4542 31.3701 15.8457 32.2437 15.4747 32.9791C14.3759 35.1544 15.1406 37.2756 16.6539 39.043C18.7494 41.4988 21.7249 43.3568 24.7804 44.347C27.0364 45.0729 30.6515 46.1774 32.122 43.6961C32.6317 42.8335 31.6747 42.9516 31.3186 43.5559Z" fill="#800505"/>
<path d="M24.3933 86.5309C21.8722 88.3406 18.1521 89.2009 15.176 88.1314C13.8105 87.6418 12.5625 86.9392 11.4583 85.997C11.0098 85.6115 10.5478 85.2098 10.1573 84.7649C8.94475 83.3758 10.314 81.6765 12.0286 82.5038C12.5132 82.7382 13.263 81.7607 12.9461 81.3429C13.7238 82.3625 11.7464 79.7524 11.7503 79.7873C11.2625 79.312 11.3941 79.2797 12.151 79.6898C12.2808 79.746 12.4047 79.8028 12.5344 79.859C12.9093 79.9527 13.148 80.0909 13.5314 79.9953C14.7051 79.712 14.5225 78.5968 14.8483 77.7723C15.2864 77.0588 15.7187 76.346 16.1568 75.6326C16.5092 75.7876 16.8615 75.9426 17.2139 76.0976C17.885 76.476 18.529 77.0339 19.0879 77.5661C20.1398 78.567 21.0116 79.7468 21.8377 80.9375C23.4614 83.2751 25.0825 85.6425 25.5537 88.5081C25.6634 89.1784 26.7133 88.2028 26.6377 87.7347C26.1452 84.7302 18.9204 70.7132 14.9372 75.3445C14.1565 76.2548 14.2636 77.2725 13.792 78.2132C13.4061 78.9738 13.5558 78.5748 12.6291 78.3306C12.302 78.2434 12.0051 78.1117 11.6605 78.1853C9.07164 78.7494 11.2768 81.5048 12.0331 82.4915C12.337 82.1048 12.6409 81.718 12.9507 81.3306C11.3729 80.5705 9.94032 80.9061 8.89759 82.3692C7.67678 84.0815 8.63704 85.3691 9.98255 86.6316C14.0914 90.4875 19.8623 90.7818 24.436 87.4969C24.867 87.196 25.1715 85.9679 24.3933 86.5309Z" fill="#800505"/>
<path d="M50.9889 43.6417C51.1198 41.2739 52.0843 38.6841 53.5278 36.8059C53.8923 36.33 54.2956 35.8852 54.7383 35.4771C55.5165 34.3847 56.496 34.5759 57.6705 36.0456C57.8326 37.1866 56.324 39.2721 55.589 40.1715C54.745 41.2007 52.7699 42.8967 51.2547 43.1239C50.4049 43.2536 47.9417 41.88 47.339 41.5351C45.5927 40.5289 43.9807 38.8254 42.8623 37.1729C42.4758 36.604 41.7239 35.658 41.7187 34.9761C41.689 32.9615 43.1371 33.8773 44.1347 34.6019C45.7784 35.7959 46.9432 37.2844 47.9596 39.0246C48.8238 40.5053 49.766 41.9479 49.6312 43.7514C49.5873 44.3622 50.6785 43.4409 50.7152 42.9779C50.939 40.0174 48.3641 36.3676 46.2952 34.4678C45.0839 33.3551 42.0489 30.8566 40.6158 32.9866C39.1376 35.1864 42.0971 38.6993 43.4678 40.1884C44.6778 41.5013 45.9587 42.4473 47.5468 43.2475C48.7362 43.8449 49.5254 44.5985 50.845 44.3578C52.9596 43.9699 54.8554 42.2473 56.1685 40.6248C57.3681 39.1443 60.0568 35.6687 58.3248 33.6256C56.674 31.6793 54.1969 34.8372 53.2012 36.0362C51.2816 38.3379 50.0718 41.4198 49.91 44.4087C49.8732 45.0305 50.9637 44.1034 50.9889 43.6417Z" fill="#800505"/>
<path d="M76.7268 75.3224C74.3798 75.0478 72.8149 73.7685 71.159 72.1463C70.5388 71.5387 67.0695 67.8824 68.2839 66.8532C70.1158 65.2966 75.8329 73.3097 75.8898 74.9859C75.915 75.6362 76.9913 74.6871 76.9738 74.2125C76.8763 71.5347 70.308 62.7926 67.4927 66.1351C66.2306 67.6343 67.4019 69.7633 68.3383 71.1007C70.1427 73.6888 72.7892 76.1834 75.9938 76.5569C76.4945 76.619 77.2507 75.3819 76.7268 75.3224Z" fill="#800505"/>
<path d="M76.9344 75.6638C78.2527 73.6642 79.6716 71.8828 81.4577 70.2842C82.1262 69.6863 82.8405 69.0775 83.5974 68.5875C84.2859 68.1168 85.0377 67.7921 85.8527 67.6133C87.4872 67.3494 87.948 67.9512 87.2292 69.4195C86.7912 72.6744 83.7674 73.9281 80.8274 74.5077C79.924 74.6845 77.0803 75.4417 76.4001 74.5053C76.0529 74.0262 75.0869 75.1219 75.3644 75.5029C76.6422 77.2671 81.5618 75.7204 83.1951 75.0212C85.4348 74.0664 88.7806 71.265 89.0444 68.6119C89.3456 65.5545 85.8184 66.2993 84.1529 67.2374C80.7614 69.1496 78.2287 72.3372 76.1252 75.5242C75.5839 76.3668 76.5576 76.241 76.9344 75.6638Z" fill="#800505"/>
<path d="M55.4614 84.3739C55.4814 84.3423 55.502 84.3164 55.522 84.2848C55.784 83.9968 56.0402 83.7095 56.3021 83.4215C54.2275 84.1168 51.8496 82.9808 50.1543 81.7983C48.7908 80.8497 46.6734 79.1493 46.0707 77.5867C44.6121 73.7717 49.1409 76.5925 50.1786 77.6245C51.91 79.3442 53.2459 81.4725 54.6915 83.424C55.0438 83.8967 56.0098 82.801 55.7271 82.4265C54.3506 80.5674 47.3428 70.0914 44.7774 75.63C43.6579 78.0429 46.3431 80.4627 47.9287 81.875C49.9066 83.6437 53.0493 85.5773 55.8098 84.6529C56.1557 84.538 56.5384 84.1719 56.59 83.7896C56.5977 83.7005 56.6119 83.6166 56.6196 83.5275C56.6345 83.3964 56.6448 83.1717 56.4551 83.1575C56.366 83.1497 56.2828 83.1413 56.1937 83.1336C55.6891 83.0896 54.9445 84.3254 55.4614 84.3739Z" fill="#800505"/>
<path d="M57.0936 82.6098C57.14 80.8044 57.5793 79.1495 58.4246 77.5495C58.755 76.9245 60.4171 73.8395 61.2979 73.7769C61.8303 74.2826 62.3679 74.7817 62.9003 75.2874C62.8151 75.6851 62.6945 76.0809 62.5486 76.4619C62.1544 77.5705 61.5763 78.6114 60.7536 79.4617C60.1625 80.0686 59.3985 80.6006 58.7152 81.1177C58.4654 81.3043 56.5967 82.265 56.6619 82.1106C57.0213 81.2177 55.9043 81.8006 55.701 82.2997C55.5301 82.7188 55.4984 82.8047 55.4539 83.2508C55.4385 83.3761 55.4294 83.6124 55.6185 83.6208C57.7415 83.7321 60.4233 81.0397 61.6751 79.5534C62.7862 78.2299 65.0994 74.4959 63.8391 72.7298C62.4193 70.7461 60.0525 73.9447 59.253 74.9513C57.3069 77.3854 56.1023 80.249 56.0212 83.382C55.9915 84.0148 57.0807 83.076 57.0936 82.6098Z" fill="#800505"/>
<path d="M40.2324 107.598C38.1069 107.887 36.0529 107.656 34.0292 106.957C32.7153 106.509 31.5138 105.96 30.3793 105.168C29.812 104.773 27.8871 103.586 27.836 102.809C27.6384 99.4426 34.311 103.143 35.0892 103.692C36.7671 104.876 38.139 106.112 39.391 107.75C39.6659 108.108 40.6338 107.03 40.3085 106.589C40.253 106.513 40.1911 106.432 40.1356 106.355C39.8729 106.002 38.8863 107.071 39.218 107.516C39.2735 107.593 39.3355 107.674 39.391 107.75C39.6949 107.363 39.9988 106.977 40.3085 106.589C38.377 104.074 35.4653 101.362 32.3046 100.536C30.5068 100.071 27.8682 100.4 26.9068 102.277C25.8105 104.423 29.4166 106.452 30.8646 107.209C33.5924 108.635 36.6873 109.239 39.7279 108.825C40.1919 108.767 40.8926 107.507 40.2324 107.598Z" fill="#800505"/>
<path d="M41.0671 107.699C40.4211 107.706 40.8281 103.484 40.8855 103.154C41.0364 102.237 42.3055 97.6782 43.2761 99.6942C43.7963 100.778 43.7164 102.599 43.4022 103.74C43.117 104.771 42.5124 105.68 41.8904 106.537C41.5742 106.972 41.1077 107.748 40.6392 108.029C40.8244 108.109 41.0038 108.189 41.1897 108.274C41.2058 108.208 41.2219 108.141 41.2381 108.075C41.4265 107.283 40.2901 108.115 40.1817 108.568C40.1656 108.635 40.1495 108.701 40.1334 108.768C40.0295 109.209 40.4244 109.165 40.6838 109.013C41.6201 108.444 42.2034 107.397 42.8235 106.522C43.4436 105.647 43.9972 104.703 44.3366 103.683C44.9598 101.778 45.0352 99.1222 43.4967 97.6576C43.418 97.584 43.2341 97.6221 43.1567 97.666C39.6786 99.6996 39.0207 105.262 40.045 108.819C40.0759 108.886 40.1276 108.927 40.1998 108.943C40.2528 108.943 40.2999 108.944 40.3521 108.938C40.84 108.937 41.5484 107.693 41.0671 107.699Z" fill="#800505"/>
<path d="M66.9955 103.107C67.0291 103.144 67.0685 103.181 67.102 103.218C67.3092 103.442 67.746 102.982 67.8505 102.865C68.5674 102.067 68.9384 101.014 69.5024 100.11C70.6206 98.321 73.2416 95.2412 75.7519 96.0331C80.2419 97.4463 74.044 100.718 72.8167 101.154C72.545 101.249 68.4061 102.785 68.197 101.908C68.0764 102.198 67.9557 102.488 67.8357 102.784C67.8989 102.718 67.9622 102.652 68.0261 102.592C68.5061 102.098 68.4099 101.126 67.7079 101.845C67.3698 102.188 66.8942 102.724 67.2504 103.231C67.788 103.995 69.8484 103.172 70.5634 102.993C73.4072 102.288 77.0059 100.759 78.2764 97.8529C79.5287 94.9958 76.0428 94.3653 74.0031 95.1096C72.5512 95.6415 71.2671 96.6784 70.2482 97.827C69.0306 99.1977 68.457 101.073 67.2646 102.406C67.5163 102.29 67.7621 102.174 68.0131 102.052C67.9796 102.015 67.9402 101.978 67.9066 101.941C67.5866 101.6 66.6219 102.707 66.9955 103.107Z" fill="#800505"/>
<path d="M40.4988 54.2142C40.4995 53.5317 40.5363 54.0218 39.9361 54.0708C39.4812 54.1037 38.9992 54.3161 38.5455 54.4135C37.3214 54.6672 36.0876 54.7278 34.8415 54.625C33.1089 54.4821 30.034 53.8471 28.9073 52.3839C27.6979 50.8121 30.5508 50.5069 31.6142 50.6594C32.6177 50.8009 33.5927 51.1633 34.5323 51.5236C35.8526 52.03 37.1445 52.5983 38.379 53.2848C39.2753 53.7853 40.1207 54.5151 40.9932 54.9594C41.4791 55.2054 42.3224 54.0116 41.9107 53.7985C40.3458 52.9957 38.9113 51.8314 37.2361 51.0938C35.3382 50.2575 33.25 49.2952 31.1321 49.3363C29.5718 49.3685 26.0356 50.6673 27.3263 52.8654C27.8846 53.8153 29.4365 54.4489 30.3709 54.8687C32.1894 55.6785 34.0898 56.0087 36.0786 55.9172C37.4241 55.8559 41.5824 55.5528 41.5842 53.4524C41.5829 52.8054 40.4995 53.7435 40.4988 54.2142Z" fill="#800505"/>
</g>
</svg>
